<?xml version="1.0" encoding="utf-8"?>
<!-- Generator: Adobe Illustrator 15.0.2, SVG Export Plug-In  -->
<!DOCTYPE svg PUBLIC "-//W3C//DTD SVG 1.1//EN" "http://www.w3.org/Graphics/SVG/1.1/DTD/svg11.dtd" [
	<!ENTITY ns_flows "http://ns.adobe.com/Flows/1.0/">
]>
<svg version="1.1"
	 xmlns="http://www.w3.org/2000/svg" xmlns:xlink="http://www.w3.org/1999/xlink" xmlns:a="http://ns.adobe.com/AdobeSVGViewerExtensions/3.0/"
	 x="0px" y="0px" width="241px" height="215px" viewBox="-0.001 -4.533 241 215" enable-background="new -0.001 -4.533 241 215"
	 xml:space="preserve">
<defs>
</defs>
<path fill="#736357" d="M74.976,95.813c-1.668-22.064,16.795-55.406,40.838-56.545c2.341,7.576-7.21,3.261-6.283,9.424
	c14.356,1.315,24.196,0.107,31.413-14.137c8.281,0.098,16.336,0.419,18.85,6.283c-2.652,5.725-8.723,8.031-14.136,10.995
	c14.37,1.462,30.391,5.587,37.696-6.283c-3.785-16.634-20.942-19.896-42.408-18.849c0.353-6.635-2.422-10.145-3.141-15.707
	C130.498,6.256,123.617,1.098,112.672,0c-6.812,12.053,11.028,18.112,3.141,31.414c-20.142,4.465-31.8,17.414-42.409,31.414
	c-2.239-7.486,0.949-11.732-1.57-17.278c-17.701,8.146-27.999,37.292-17.278,59.687C64.96,105.693,69.336,100.119,74.976,95.813z
	 M175.501,128.798c-0.232-21.524-20.582-17.317-26.702,1.569c-0.681-5.076-5.284-6.232-7.854-9.424
	c9.279-14.563,24.906-58.229,3.145-64.398c-13.211-3.744-22.982,9.069-29.844,18.849c-5.152-1.13-1.737-10.829-7.854-10.995
	c-20.604,10.133-14.662,64.902,7.854,69.111c5.795-5.553,3.432-9.703,4.712-18.85c2.411,5.968,3.405,13.349,10.995,14.138
	c-2.549,4.784-7.889,6.772-9.424,12.565c-34.513,9.988-67.054,21.953-103.667,29.844c-6.668,0.179-11.032-7.854-15.707-4.713
	c-4.844,11.134,6.666,16.197,14.136,17.277c28.21,4.074,74.41-23.338,100.524-26.701c-1.898,14.465,7.873,17.261,12.566,25.131
	c-12.422,16.496-35.784,21.029-54.975,7.854c0.802,4.991,13.986,11.12,18.849,17.277h14.136
	c12.463-6.387,20.527-17.172,32.985-23.563c11.761,5.826,26.604,14.17,39.269,6.282c-5.047-12.755-13.734-21.867-17.276-36.127
	c3.021-14.771,22.262-20.508,34.556-9.424c-0.324,6.532-18.057,3.86-14.137,9.424c8.336-3.298,27.222,6.731,36.126-1.569v-7.854
	C209.665,133.378,193.804,129.867,175.501,128.798z M120.527,95.813c3.395-11.445,10.312-27.139,21.99-25.131
	c0.662,11.657-1.015,20.975-3.141,29.844C133.242,98.433,129.281,90.653,120.527,95.813z M133.092,172.777
	c-16.473-11.104-1.752-28.855,14.138-29.844c1.397,0.696,2.811,1.379,3.143,3.143C148.865,159.23,142.718,167.742,133.092,172.777z
	 M142.517,177.488c2.17-4.637,7.254-6.358,9.424-10.994c5.867,1.988,6.143,9.566,7.854,15.707
	C153.054,181.613,149.354,177.98,142.517,177.488z"/>
<text transform="matrix(1 0 0 1 187.499 187.8477)" fill="#736357" font-family="'Optima'" font-size="21.5753">Taste</text>
</svg>
