<?xml version="1.0" encoding="utf-8"?>
<!-- Generator: Adobe Illustrator 15.0.0, SVG Export Plug-In  -->
<!DOCTYPE svg PUBLIC "-//W3C//DTD SVG 1.1//EN" "http://www.w3.org/Graphics/SVG/1.1/DTD/svg11.dtd" [
	<!ENTITY ns_flows "http://ns.adobe.com/Flows/1.0/">
]>
<svg version="1.1"
	 xmlns="http://www.w3.org/2000/svg" xmlns:xlink="http://www.w3.org/1999/xlink" xmlns:a="http://ns.adobe.com/AdobeSVGViewerExtensions/3.0/"
	 x="0px" y="0px" width="87px" height="84px" viewBox="0 0 87 84" overflow="visible" enable-background="new 0 0 87 84"
	 xml:space="preserve">
<defs>
</defs>
<path fill-rule="evenodd" clip-rule="evenodd" fill="#9E005D" d="M20.008,28c1.771,6.87,3.412,9.485,6,14
	c-2.068,8.598-11.062,10.271-18,14c-0.027-0.973-1.225-0.775-2-1c-0.441-7.441,5.822-8.178,7-14c-1.223-3.049-3.816,1.463-5-1
	c1.463-3.87,6.418-4.248,9-7c-5.271-6.396-10.076-13.258-13-22c5.957,2.711,6.875,10.458,12,14c2.135-0.928,1.366-7.271-2-6
	c5.226,0.008-0.238-6.238,0-7c2.211-7.057,13.827-15.283,19-8c0.748,11.082-6.377,14.289-8,23
	C22.928,29.189,21.776,26.123,20.008,28z M21.008,20c2.478-0.928,4.742-11.365,1-12C17.118,11.541,23.334,16.174,21.008,20z"/>
<path fill-rule="evenodd" clip-rule="evenodd" fill="#9E005D" d="M37.008,0c3.217,1.783,5.071,4.929,6,9
	c3.817-0.484,6.383,0.283,8,2c-8.457,4.877-10.148,16.518-18,22c-1.232-3.963,6.315-12.539,1-18
	C38.922,13.914,33.754,2.746,37.008,0z"/>
<path fill-rule="evenodd" clip-rule="evenodd" fill="#9E005D" d="M44.008,57c7.834-0.363,16.352,2.327,13,10
	c-5.578,0.578-8.844-1.156-13-2C48.09,62.388,46.559,60.115,44.008,57z"/>
<path fill-rule="evenodd" clip-rule="evenodd" fill="#9E005D" d="M53.008,33c0,1.666,0,3.334,0,5c-4.307,0.359-6.694,2.639-9,5
	c0.328,3.672,7.111,0.889,7,5c-4.813,4.742-13.457-0.391-19,3c-2.051-4.617-4.925-8.408-6-14c3.104-3.184,5.246,4.834,8,2
	C39.128,35.996,47.077,29.006,53.008,33z M37.008,46c2.174-3.826,6.54-5.46,8-10C39.124,35.389,30.754,40.896,37.008,46z"/>
<path fill-rule="evenodd" clip-rule="evenodd" fill="#9E005D" d="M36.008,59c-5.206,12.514-14.767,0.271-22,1
	c-6.706,0.676-6.188,10.486-14,6c-0.127-1.794,1.225-2.109,1-4C10.336,58.472,23.183,58.74,36.008,59z"/>
<path fill-rule="evenodd" clip-rule="evenodd" fill="#9E005D" d="M59.207,57.018c11.329,2.987,16.51-12.268,27.718-5.156
	c-0.836,1.742-1.153,4.004-2.579,5.156c-4.735-1.664-11.312-5.778-14.825,0c0.993,2.186,3.735,7.098,0,8.38
	c1.714,10.311,19.717,3.606,16.114,16.759c-7.628,1.211-18.944,4.73-24.494-0.645c-2.818-2.729-1.35-6.088-4.512-9.023
	c-1.622,0.527-0.899,3.398-1.934,4.512c-2.738-0.52-5.303,1.899-7.091,0c-0.365-5.594,2.76-13.087,7.091-16.115
	c4.237,0.749,3.71,4.502,2.578,7.736c4.227,1.145,5.962,4.78,7.735,8.379c2.188-0.175,5.226,0.5,6.445-0.645
	C72.677,64.604,62.844,63.908,59.207,57.018z"/>
</svg>
