<?xml version="1.0" encoding="utf-8"?>
<!-- Generator: Adobe Illustrator 15.0.0, SVG Export Plug-In  -->
<!DOCTYPE svg PUBLIC "-//W3C//DTD SVG 1.1//EN" "http://www.w3.org/Graphics/SVG/1.1/DTD/svg11.dtd" [
	<!ENTITY ns_flows "http://ns.adobe.com/Flows/1.0/">
]>
<svg version="1.1"
	 xmlns="http://www.w3.org/2000/svg" xmlns:xlink="http://www.w3.org/1999/xlink" xmlns:a="http://ns.adobe.com/AdobeSVGViewerExtensions/3.0/"
	 x="0px" y="0px" width="182px" height="159px" viewBox="0 0 182 159" overflow="visible" enable-background="new 0 0 182 159"
	 xml:space="preserve">
<defs>
</defs>
<path fill-rule="evenodd" clip-rule="evenodd" fill="#736357" d="M177.616,118.634c-8.546,0.642-16.116,4.029-23.458,2.682
	c-7.725-1.418-14.615-11.043-19.438-15.415c-8.791-7.973-16.051-17.593-26.81-22.119c-1.559,23.263,8.517,59.647-5.362,75.068
	c-6.382-2.044-9.009-9.464-13.405-14.075c-3.358-3.523-8.752-5.525-9.383-10.054c6.609,2.302,13.257,4.322,19.437,5.362
	c2.289-13.672,2.148-32.004,0-46.248c-11.448,18.266-26.07,36.934-48.258,42.227c18.361-13.587,33.957-29.94,43.566-52.28
	c-9.744,6.788-25.438,3.794-28.821-6.702c12.983,0.494,24.427-5.811,32.842-12.064c0.072-3.701,2.275-13.466-1.34-16.756
	c-4.57,1.014-6.973,4.197-11.394,5.361c-0.175-1.963,1.515-2.06,1.34-4.021c-7.415,1.121-19.883,0.609-25.47,1.341
	c3.76-5.823,12.963-4.622,20.778-7.373c5.966-2.101,15.48-8.202,16.756-12.064c1.923-5.82,0.381-27.028-4.021-26.81
	c3.147-1.099,4.575-3.915,8.043-4.692c10.729,3.495,8.707,16.935,5.362,27.48c5.408,0.046,7.468-3.256,13.405-2.681
	c1.509,4.522,6.711,5.354,7.373,10.724c-6.769,4.618-15.866,5.76-22.118,9.384c0.173,4.809,0.471,6.454,0.67,12.734
	c8.292-0.868,8.925-9.395,19.437-8.043c3.665,2.368,8.635,3.43,9.384,8.713c-7.477,8.609-17.406,14.767-27.48,20.778
	c17.831,3.135,26.524,19.602,42.896,24.799c7.502,2.382,15.875,2.214,24.799,5.362c-0.092,3.443,0.099,6.604,1.341,8.714"/>
<path fill-rule="evenodd" clip-rule="evenodd" fill="#736357" d="M42.226,79.09c3.729-2.305,4.626-7.438,8.043-10.054
	c1.564,5.816-2.724,11.568-2.681,18.096c0.045,2.261,1.532,0.119,2.681,2.012c0.669,6.924-2.485,10.027-6.033,12.735
	c-3.837-2.755-9.678-5.473-11.394-12.065c-2.267-8.71,1.909-19.842-8.043-19.438C31.818,63.965,41.085,71.524,42.226,79.09z"/>
<path fill-rule="evenodd" clip-rule="evenodd" fill="#736357" d="M0,73.728c4.545,3.052,7.885,7.308,12.064,10.724
	c3.43-1.038,2.42-6.517,6.703-6.702c-5.791,13.013,7.889,17.286,6.032,28.82c-1.001,1.903-5.104,0.706-6.032,2.682
	C5.98,103.941,3.615,88.209,0,73.728z"/>
<text transform="matrix(1 0 0 1 130.1436 149.3037)" fill="#736357" font-family="'IDHeiLight'" font-size="21.5753" letter-spacing="4">佳餚</text>
</svg>
