<?xml version="1.0" encoding="utf-8"?>
<!-- Generator: Adobe Illustrator 15.0.2, SVG Export Plug-In  -->
<!DOCTYPE svg PUBLIC "-//W3C//DTD SVG 1.1//EN" "http://www.w3.org/Graphics/SVG/1.1/DTD/svg11.dtd" [
	<!ENTITY ns_flows "http://ns.adobe.com/Flows/1.0/">
]>
<svg version="1.1"
	 xmlns="http://www.w3.org/2000/svg" xmlns:xlink="http://www.w3.org/1999/xlink" xmlns:a="http://ns.adobe.com/AdobeSVGViewerExtensions/3.0/"
	 x="0px" y="0px" width="214px" height="159px" viewBox="0 -0.003 214 159" enable-background="new 0 -0.003 214 159"
	 xml:space="preserve">
<defs>
</defs>
<path fill="#736357" d="M177.616,118.631c-8.546,0.642-16.116,4.029-23.458,2.683c-7.725-1.418-14.615-11.043-19.438-15.416
	c-8.791-7.973-16.053-17.592-26.812-22.117c-1.56,23.263,8.517,59.646-5.362,75.066c-6.382-2.043-9.009-9.463-13.405-14.074
	c-3.358-3.522-8.752-5.524-9.383-10.055c6.609,2.303,13.259,4.322,19.438,5.362c2.289-13.672,2.148-32.004,0-46.248
	c-11.448,18.267-26.07,36.935-48.258,42.228C69.3,122.472,84.896,106.12,94.505,83.78c-9.744,6.787-25.438,3.794-28.821-6.702
	c12.983,0.494,24.427-5.811,32.841-12.064c0.072-3.701,2.274-13.466-1.34-16.756c-4.569,1.014-6.974,4.197-11.395,5.361
	c-0.175-1.963,1.515-2.06,1.34-4.021c-7.415,1.121-19.883,0.609-25.47,1.341c3.76-5.823,12.963-4.622,20.778-7.373
	c5.966-2.101,15.48-8.202,16.754-12.064c1.925-5.82,0.383-27.028-4.021-26.81C98.32,3.593,99.748,0.777,103.216,0
	c10.729,3.495,8.707,16.935,5.362,27.48c5.408,0.046,7.468-3.256,13.404-2.681c1.51,4.522,6.711,5.354,7.373,10.724
	c-6.77,4.618-15.865,5.76-22.117,9.384c0.173,4.809,0.471,6.454,0.67,12.734c8.292-0.868,8.925-9.395,19.438-8.043
	c3.664,2.368,8.635,3.43,9.383,8.713c-7.477,8.609-17.404,14.767-27.479,20.778c17.831,3.137,26.523,19.604,42.896,24.801
	c7.502,2.381,15.875,2.213,24.799,5.36c-0.092,3.442,0.1,6.604,1.342,8.714"/>
<path fill="#736357" d="M42.226,79.087c3.729-2.305,4.626-7.438,8.043-10.054c1.564,5.816-2.724,11.567-2.681,18.096
	c0.045,2.261,1.532,0.119,2.681,2.013c0.669,6.924-2.485,10.026-6.033,12.734c-3.837-2.755-9.678-5.473-11.394-12.064
	c-2.267-8.711,1.909-19.841-8.043-19.438C31.818,63.962,41.085,71.521,42.226,79.087z"/>
<path fill="#736357" d="M0,73.725c4.545,3.052,7.885,7.308,12.064,10.724c3.43-1.038,2.42-6.517,6.703-6.702
	c-5.791,13.014,7.889,17.286,6.032,28.82c-1.001,1.902-5.104,0.705-6.032,2.682C5.98,103.938,3.615,88.206,0,73.725z"/>
<text transform="matrix(1 0 0 1 124.667 151.3779)" fill="#736357" font-family="'Optima'" font-size="21.5753">Delicacy</text>
</svg>
