<?xml version="1.0" encoding="utf-8"?>
<!-- Generator: Adobe Illustrator 15.0.0, SVG Export Plug-In  -->
<!DOCTYPE svg PUBLIC "-//W3C//DTD SVG 1.1//EN" "http://www.w3.org/Graphics/SVG/1.1/DTD/svg11.dtd" [
	<!ENTITY ns_flows "http://ns.adobe.com/Flows/1.0/">
]>
<svg version="1.1"
	 xmlns="http://www.w3.org/2000/svg" xmlns:xlink="http://www.w3.org/1999/xlink" xmlns:a="http://ns.adobe.com/AdobeSVGViewerExtensions/3.0/"
	 x="0px" y="0px" width="84px" height="83px" viewBox="0 0 84 83" overflow="visible" enable-background="new 0 0 84 83"
	 xml:space="preserve">
<defs>
</defs>
<g>
	<g>
		<path fill="#6F1E78" d="M36.171,5.103c0.068-2.197-2.923-4.429-5.437-4.864c-5.989-1.039-14.169,1.537-18.314,3.433
			c6.269,0.493,10.78,5.322,16.598,6.296C30.665,8.931,36.059,8.715,36.171,5.103z M19.287,60.617
			c4.102-1.98,7.285-3.415,11.733-5.437c5.351-2.433,10.64-4.404,12.591-8.298c-0.003-0.474-0.793-0.161-0.858-0.573
			c-0.109-1.063,1.16-0.748,0.858-2.003c-0.56-1.443-1.719-2.287-2.575-3.434c-1.712-0.197-2.714-1.104-3.721-2.004
			c-2.113-0.748-5.039-0.686-6.582-2.004c0.391-3.347-0.913-5-2.003-6.867c3.82-1.889,10.961-3.217,13.45-6.582
			c0.62-0.837,2.088-3.593,0.286-4.863c-0.494-1.092,0.022,1.113-0.572,0.857c-0.674-0.355-2.06-0.944-1.431-1.717
			c0.978,0.117,0.363,0.773,1.431,0.287c-4.007-3.43-7.482-0.283-11.16,1.43c-3.87,1.803-9.343,3.01-14.309,3.434
			c-0.699,0.16-0.609,1.107-1.716,0.859c-1.842-0.352-4.12-0.269-5.724-0.859c1.61,3.812,5.759,7.867,10.588,6.582
			c0.364,0.686,0.934,1.165,2.003,1.145c0.803-0.342,1.975-0.314,3.148-0.285c1.029,2.168,0.02,5.662,0,7.725
			c-4.046,1.971-15.301,2.969-15.453,7.728c-0.079,2.5,2.978,3.624,4.866,4.864c2.202-1.486,7.757-2.294,9.729,0
			c-4.986,4.172-11.483,6.831-20.318,7.154c-0.958,2.205-4.195,5.546-3.433,8.299c0.659,2.381,3.966,1.915,6.868,2.574
			c4.147-1.393,10.099-0.066,12.877-2.289c5.13,0.091,12.278,0.33,18.601,0c4.381-0.229,9.071-1.498,10.587-5.15
			C40.178,56.08,29.694,62.006,19.287,60.617z M66.01,73.251c-0.05-2.369-0.461-3.726-0.769-6.535
			c1.921-1.411,6.297-0.366,7.304-2.691c-0.148-2.03-3.979-0.377-4.613-1.922c0.489-1.306,2.132-1.456,2.307-3.075
			c-1.718-1.869-3.575,0.773-5.381,1.153c-0.147-3.862,4.265-3.168,4.613-6.535c-2.069-1.271-3.332,1.501-4.613,0.769
			c3.263-3.272,4.582-8.487,10.763-8.841c-1.069-1.494-3.461-1.665-4.613-3.075c-3.654,1.087-3.312,6.17-8.073,6.15
			c-0.117-2.539,1.248-4.815,0.385-6.92c-2.131-0.583-3.725,0.36-5.382,0.385c2.521,0.811,1.371,5.293,2.306,7.688
			c-2.066,0.909-5.09,2.214-6.534,1.538c-1.938,5.4,4.876,0.712,6.919,0.768c0.538,2.402-1.764,0.503-1.538,1.922
			c0.719,1.076,1.712,1.877,1.922,3.461c-0.616,1.652-3.354-0.881-3.459,1.537c0.462,1.075,2.761,0.314,3.459,1.153
			c-0.596,1.711-3.397,1.217-2.691,4.229c1.636-0.157,1.743-1.959,3.574-1.923c0.455,4.684-4.865,4.188-6.805,5.768v3.075
			c1.94,1.044,2.464-2.41,5.267-2.307c-3.176,3.741-6.078,7.817-10.82,9.994c0.416,1.798-1.563,2.502-0.413,3.845
			c2.625-0.321,3.497-2.384,5.367-3.46c3.137,6.661,14.617,3.055,12.294-5.382c4.071,0.412,7.685,1.281,10.76,2.691
			c-0.042,0.727-1.272,0.266-1.154,1.152c2.105-0.865,3.384,1.496,5.765,1.538c0.457-1.21,1.298-2.034,1.537-3.46
			C80.996,71.657,72.283,72.882,66.01,73.251z M60.243,79.017c-2.065,0.272-3.284-0.303-4.612-0.769
			c1.18-3.177,4.249-4.464,5.766-7.304C62.291,73.384,61.224,77.172,60.243,79.017z M61.782,52.877
			c0.068-3.136,2.661-3.746,4.998-4.613C65.68,50.824,64.928,53.271,61.782,52.877z"/>
	</g>
</g>
</svg>
