<?xml version="1.0" encoding="utf-8"?>
<!-- Generator: Adobe Illustrator 15.0.0, SVG Export Plug-In . SVG Version: 6.00 Build 0)  -->
<!DOCTYPE svg PUBLIC "-//W3C//DTD SVG 1.1//EN" "http://www.w3.org/Graphics/SVG/1.1/DTD/svg11.dtd">
<svg version="1.1" id="Layer_1" xmlns="http://www.w3.org/2000/svg" xmlns:xlink="http://www.w3.org/1999/xlink" x="0px" y="0px"
	 width="236px" height="236px" viewBox="0 0 236 236" enable-background="new 0 0 236 236" xml:space="preserve">
<path opacity="0.28" fill="#A69586" d="M201.34,128.553c0.018-0.076-6.742-2.986,4.973-1.953c3.164-0.123,6.324-0.291,9.486-0.51
	c2.361-0.865,4.711-1.82,7.037-2.861c2.283,0.371,4.562,0.768,6.84,1.188c-0.008,0.001,0.125,0.583,0.215,3.095
	c0.043,2.506,0.176,6.984-1.02,14.68c-0.625,3.836-1.615,8.477-3.418,13.93c-1.807,5.445-4.426,11.716-8.453,18.562
	c-4.025,6.832-9.479,14.248-16.967,21.58c-7.482,7.312-17.021,14.555-29.021,20.497c-0.008-0.015-2.311,1.371-6.791,3.464
	c-4.479,2.072-11.188,4.824-20.002,6.996c-8.799,2.17-19.7,3.713-32.053,3.271c-12.336-0.426-26.199-2.928-39.988-8.635
	c0.002-0.008-1.567-0.627-4.446-1.967c-2.874-1.346-7.062-3.416-12.145-6.531c-5.076-3.115-11.051-7.295-17.282-12.905
	c-6.217-5.606-12.692-12.672-18.469-21.412c-5.767-8.719-10.812-19.155-13.924-30.938c-3.127-11.773-4.253-24.793-2.688-38.02
	c1.536-13.238,5.867-26.635,12.771-38.719c6.877-12.107,16.235-22.894,27.15-31.588C54.055,31.06,66.505,24.411,79.487,20.06
	c12.984-4.365,26.49-6.422,39.556-6.417c13.064-0.009,25.812,2.024,37.479,5.72c11.679,3.679,22.265,8.999,31.328,15.232
	c9.076,6.232,16.629,13.378,22.605,20.616c5.986,7.24,10.393,14.564,13.527,21.204c3.141,6.648,5.024,12.605,6.168,17.33
	c1.139,4.734,1.557,8.244,1.664,10.235c-0.043,0.012-0.498-4.119-2.459-11.129c-1.97-6.976-5.65-16.867-12.511-27.356
	c-6.803-10.48-16.84-21.44-29.793-30.297c-12.893-8.901-28.643-15.612-45.266-18.73c-16.609-3.168-33.903-2.84-49.846,0.651
	c-15.952,3.45-30.33,10.064-41.673,17.839c-11.395,7.75-19.764,16.552-25.25,23.771c-5.505,7.245-8.291,12.814-9.111,14.803
	c0.023,0.021,1.885-3.649,5.994-9.494c4.112-5.816,10.648-13.744,20.049-21.421c9.354-7.686,21.605-15.032,35.849-19.908
	c14.202-4.926,30.32-7.299,46.298-6.401c15.998,0.823,31.937,4.95,45.713,11.677c13.822,6.672,25.422,15.854,33.931,25.424
	c8.567,9.563,14.049,19.415,17.239,27.236c3.201,7.855,4.285,13.644,4.472,15.977c-0.029,0.012-0.779-3.578-3.006-9.617
	c-2.244-6.01-6.136-14.479-12.75-23.433c-6.566-8.949-15.904-18.297-27.72-25.889c-11.764-7.629-25.961-13.419-40.938-16.163
	c-14.97-2.783-30.573-2.588-45.023,0.353c-14.463,2.899-27.607,8.566-38.12,15.342C47.335,43.974,39.42,51.764,34.149,58.379
	c-5.289,6.639-8.044,12.03-8.88,14.552c0.019,0.016,1.729-2.907,5.347-7.596c3.622-4.666,9.271-11.051,17.231-17.352
	c7.927-6.307,18.2-12.459,30.149-16.797c11.921-4.366,25.477-6.856,39.144-6.767c13.657,0.031,27.428,2.614,39.698,7.358
	c12.295,4.704,23.027,11.52,31.345,18.934c8.354,7.404,14.295,15.337,18.12,22.024c3.845,6.706,5.675,12.123,6.312,15.033
	c0.004,0.028-3.148-8.841-9.275-17.612c-3.01-4.396-6.672-8.736-10.207-12.214c-3.52-3.492-6.877-6.135-8.983-7.521
	c4.41,3.889,8.444,8.14,12.024,12.695c-6.282-6.854-13.594-12.771-21.58-17.575c-4.442-3.059-9.157-5.772-14.08-8.115
	c-0.006,0.008,2.521,1.171,6.148,3.261c3.631,2.082,8.322,5.157,12.676,8.747c4.373,3.567,8.383,7.633,11.201,11.074
	c2.83,3.438,4.522,6.192,4.695,7.011c0.004-0.02,3.5,3.329,0.747-0.519c-1.436-1.866-4.368-5.7-11.297-11.462
	c-3.479-2.843-7.998-6.13-14.002-9.422c-5.998-3.279-13.506-6.578-22.842-8.977c-0.006,0.021-2.684-0.988-8.084-2.261
	c-5.391-1.233-13.594-2.702-24.438-2.523c-10.78,0.2-24.331,2.122-38.839,8.491c-7.223,3.184-14.637,7.486-21.698,13.181
	c-7.049,5.688-13.753,12.782-19.259,21.337c-5.501,8.534-9.78,18.554-11.818,29.552c-2.052,10.971-1.856,22.907,1.149,34.613
	c2.984,11.703,8.839,23.113,17.224,32.917c8.361,9.816,19.208,18.024,31.6,23.668c12.383,5.659,26.3,8.735,40.5,8.714
	c14.205,0,28.662-3.051,41.72-9.333c13.048-6.24,24.687-15.75,32.875-27.535C197.004,156.219,201.555,142.271,201.34,128.553z"/>
<path opacity="0.28" fill="none" stroke="#D4CCC5" stroke-width="0.0736" d="M232.674,121.312c-0.014,0,0.127,2.027,0.062,5.843
	c-0.087,3.808-0.396,9.433-1.771,16.463c-1.373,7.014-3.854,15.446-8.264,24.411c-4.389,8.953-10.729,18.408-19.279,27.168
	c-8.529,8.76-19.268,16.798-31.826,22.955c-12.537,6.171-26.896,10.416-42.061,11.93c-15.115,1.521-31.127,0.389-46.727-3.971
	c-15.58-4.336-30.679-11.889-43.673-22.432c0.029-0.031-3.559-2.839-9.107-8.679c-5.49-5.846-12.944-14.921-19.139-27.688
	c-3.085-6.366-5.812-13.64-7.706-21.636c-1.895-7.987-2.929-16.696-2.775-25.689c0.144-8.996,1.483-18.359,4.174-27.513
	c2.679-9.157,6.687-18.087,11.812-26.3c10.23-16.493,24.896-29.888,40.778-38.918c15.892-9.124,32.908-13.944,48.174-15.599
	c15.302-1.691,28.831-0.396,39.231,1.712c10.41,2.12,17.664,4.935,21.137,6.396c-0.02,0.035,4.848,1.699,12.352,5.61
	c7.478,3.911,17.56,10.304,27.123,19.728c9.586,9.338,18.474,21.824,23.949,35.594c2.764,6.856,4.707,13.97,5.793,20.888
	c1.099,6.919,1.342,13.629,0.976,19.722"/>
<path fill="none" stroke="#A69586" stroke-width="0.0736" d="M16.938,65.281c-1.691,2.436-4.607,7.006-7.628,13.57
	c-3.009,6.548-6.07,15.153-7.792,25.229c-1.733,10.065-2.092,21.492-0.286,33.195c1.77,11.695,5.753,23.514,11.483,34.047
	c5.698,10.564,13.061,19.824,20.826,27.287c7.763,7.488,15.902,13.205,23.158,17.385c7.267,4.188,13.645,6.873,18.132,8.566
	c4.499,1.682,7.111,2.424,7.107,2.436c8.248,2.648,18.024,4.646,28.645,5.247c10.606,0.612,22.043-0.136,33.522-2.652
	c11.469-2.493,22.895-6.778,33.312-12.641c10.43-5.851,19.83-13.269,27.545-21.524c7.736-8.242,13.771-17.3,18.025-26.097
	c4.282-8.799,6.799-17.299,8.166-24.507c1.377-7.223,1.657-13.15,1.688-17.211c0.019-4.066-0.184-6.295-0.168-6.295"/>
<path opacity="0.28" fill="none" stroke="#A69586" stroke-width="0.0736" d="M28.006,65.974c0.017,0.015,1.703-2.473,5.154-6.5
	c3.453-4.009,8.745-9.53,16.068-15.1c7.298-5.572,16.654-11.15,27.593-15.326c10.914-4.199,23.39-6.948,36.247-7.513
	c12.837-0.596,26.065,0.941,38.356,4.565c12.302,3.593,23.597,9.24,32.938,15.909c9.369,6.651,16.771,14.271,22.117,21.359
	c5.371,7.092,8.731,13.604,10.719,18.201"/>
<path opacity="0.28" fill="none" stroke="#D4CCC5" stroke-width="0.0736" d="M23.697,117.241c0.021,0.005,0.122-2.991,1.006-8.157
	c0.903-5.146,2.719-12.488,6.588-20.638c3.834-8.138,9.793-17.021,17.957-24.911c8.12-7.912,18.401-14.766,29.713-19.438
	c11.297-4.713,23.553-7.223,35.249-7.597c11.72-0.413,22.81,1.244,32.146,4.003c9.365,2.745,16.978,6.53,22.476,9.897
	c5.51,3.378,8.967,6.285,10.369,7.569"/>
<path opacity="0.28" fill="#A69586" d="M201.434,102.532l0.156,0.976C201.416,102.583,201.336,102.136,201.434,102.532z"/>
<path opacity="0.28" fill="#A69586" d="M202.527,115.615c-0.013-1.696-0.072-3.889-0.244-6.074
	c-0.176-2.186-0.457-4.358-0.693-6.033c0.258,1.482,0.682,4.238,0.863,6.771C202.656,112.81,202.625,115.104,202.527,115.615z"/>
<path opacity="0.28" fill="#A69586" d="M201.662,101.874c0.242,1.395,0.451,2.795,0.609,4.201
	C201.865,103.625,202.037,104.06,201.662,101.874z"/>
<path opacity="0.28" fill="#A69586" d="M201.744,103.427l-0.115-0.204c-0.117-0.745-0.207-1.495-0.348-2.236
	C201.463,101.794,201.588,102.614,201.744,103.427z"/>
<path fill="#A69586" d="M36.634,84.199c0.22-0.377,0.369-0.604,0.322-0.397L36.634,84.199z"/>
<path fill="#A69586" d="M32.688,93.097c-0.29,0.824-0.465,1.409-0.618,1.915C32.235,94.43,32.383,93.948,32.688,93.097z"/>
<path fill="#A69586" d="M40.87,76.468l-0.893,1.474L40.87,76.468z"/>
<path fill="#A69586" d="M135.303,38.723c1.566,0.393,3.037,0.801,4.15,1.122C136.4,39.138,136.152,39.002,135.303,38.723z"/>
<path fill="#A69586" d="M31.306,137.561l0.191,0.385C31.615,138.398,31.659,138.621,31.306,137.561z"/>
<path fill="#A69586" d="M30.997,95.037c0.048-0.031,0.047,0.067,0.014,0.247l-0.157,0.49L30.997,95.037z"/>
<path fill="#A69586" d="M44.677,70.776l0.051-0.079l0.895-1.087C45.156,70.2,44.871,70.583,44.677,70.776z"/>
<path fill="#A69586" d="M36.569,150.413c0.266,0.562,0.513,1.104,0.71,1.588C36.662,150.811,36.416,150.229,36.569,150.413z"/>
<polygon fill="#A69586" points="32.002,95.241 31.994,95.261 32.07,95.012 "/>
<path fill="#A69586" d="M36.335,81.814c-0.358,0.66-0.674,1.294-1.03,2.014C35.699,82.956,36.077,82.244,36.335,81.814z"/>
<path fill="#A69586" d="M135.303,38.723l-1.328-0.313C134.605,38.537,134.992,38.632,135.303,38.723z"/>
<path opacity="0.28" fill="#A69586" d="M198.4,91.6c-0.457-1.289-0.531-1.607-0.584-1.861C198.076,90.445,198.254,91.09,198.4,91.6z
	"/>
<path fill="#A69586" d="M202.123,118.941l0.025-0.543L202.123,118.941z"/>
<path fill="#A69586" d="M182.141,165.833l-0.502,0.471C181.926,165.969,182.119,165.801,182.141,165.833z"/>
<path opacity="0.28" fill="#A69586" d="M142.242,192.044c3.289-1.043,6.715-2.06,9.508-3.198l-0.986,0.311
	c0.953-0.346,1.892-0.728,2.83-1.104l-0.078-0.088c4.648-1.911,9.998-5.116,11.625-5.97l-0.594,0.158
	c1.531-0.893,3.047-1.812,4.523-2.797c-0.851,0.559-1.726,1.074-2.59,1.604c2.5-1.633,5.559-3.829,8.024-5.829
	c2.48-1.984,4.363-3.77,4.832-4.199l-0.438,0.318c0.688-0.693,1.265-1.206,2.005-1.912l-0.628,0.484
	c3.191-3.174,4.998-5.412,6.828-7.779c1.795-2.395,3.64-4.924,6.213-9.232c1.343-2.382-0.776,1.303-0.866,1.297l2.83-5.022
	c-0.474,0.654-2.472,4.368-1.041,1.499c1.125-1.977-0.828,1.312,1.024-2.229l0.857-1.325c0.883-2.05,0.086-0.455,1.469-3.689
	c1.582-3.703-1.639,4.659,0.805-1.35c1.123-3.06,1.933-6.574,3.252-12.705c0.793-5.351-0.688,2.763,0.461-4.616
	c-0.229,1.577-0.536,3.141-0.87,4.694c0.147-1.224-0.031-0.468,0.491-3.649c0.213-0.995,0.56-2.971,0.685-4.713
	c-0.379,3.475-0.301,1.939-0.219,0.354c0.047-1.59,0.094-3.23-0.229-0.012c0.057-0.8,0.131-1.6,0.156-2.402
	c-0.02,0.298-0.043,0.373-0.051,0.211c0.049-1.066,0.069-2.133,0.072-3.2c0.004,1.98-0.371,6.653-0.369,4.475
	c0.098-1.54,0.125-3.083,0.127-4.625c-0.127,1.231-0.15-0.458-0.242-0.188c-0.088,4.515-0.562,9.019-1.48,13.426
	c0.166-0.507,0.539-2.419,0.482-1.694c-0.588,3.565-0.639,2.884-1.34,6.2l0.44-1.438c-0.094,0.256-0.215,0.721-0.055-0.004
	c0.229-1.168,0.373-1.672,0.438-1.668c-0.103,1.197-1.023,4.512-1.416,5.459c-1.291,4.207-0.072,0.926-0.328,1.863
	c-0.826,2.123-2.506,6.932-3.824,9.335c0.289-0.51,0.584-1.019,0.854-1.54c-1.247,3.135-2.832,5.717-3.87,7.385l0.469-0.61
	c-2.394,4.017-3.51,6.106-5.945,8.735l0.35-0.353c-1.137,1.546-2.967,3.835-4.295,5.122c0.002,0.059-0.182,0.334-0.701,0.913
	c-0.813,0.668-2.112,2.19-4.186,4.139c1.404-1.258,1.086-0.723,2.541-2.083c-3.037,3.189-3.039,2.656-5.828,5.051
	c-1.648,1.475,1.592-1.183,2.01-1.511c-4.295,3.716-8.998,7.545-12.287,9.095c0.685-0.444,1.345-0.931,2.019-1.393
	c-1.947,1.158-3.015,1.761-2.758,1.654c0.614-0.383,0.846-0.482,1.082-0.586c-2.875,1.856-5.275,3.059-7.718,4.16
	c-2.448,1.096-4.942,2.095-8.159,3.328c0.502-0.119,1.436-0.438,1.491-0.41c-2.955,1.166-2.991,0.814-7.846,2.433l0.982-0.212
	c-1.619,0.542-2.875,0.738-2.658,0.665c-0.023,0.166-2.645,0.873-5.727,1.498c-3.078,0.64-6.617,1.138-8.382,1.513
	c-1.26,0.062-3.688,0.198-6.075,0.266c-2.39,0.067-4.737,0.045-5.837,0.071c-3.16,0.127,2.796,0.238,1.623,0.384
	c-2.48-0.027-3.777-0.193-7.464-0.4c-0.042-0.131,7.282,0.092,0.38-0.404l-0.97,0.012l2.699,0.164
	c1.992,0.211-1.207,0.051-1.668,0.053c-2.473-0.188-4.933-0.496-7.378-0.885c-0.515-0.24,3.878,0.422,4.346,0.379
	c-5.847-0.537-12.862-1.75-18.045-3.543l0.476,0.219c-3.307-1.112-4.273-1.432-5.088-1.653c-0.808-0.235-1.458-0.403-3.962-1.613
	c-2.709-1.132,0.882,0.629-3.164-1.194c-1.13-0.543-0.438-0.285-0.229-0.209c-4.842-2.489-2.253-0.877-6.572-3.459l0.85,0.7
	c-5.183-3.062-10.093-7.015-14.015-10.358c0.128,0.318,2.584,2.371,3.54,3.222c-2.695-2.247-5.856-5.026-8.731-8.002
	c-2.889-2.962-5.488-6.112-7.322-8.782c1.23,1.49-1.562-2.64,0.951,0.643c0.496,0.963,1.759,2.439,3.186,4.125
	c-1.021-1.479-3.38-4.363-5.334-7.178c-1.968-2.801-3.534-5.505-3.629-6.074l-0.577-0.758c-0.448-0.884-1.465-3.174-0.65-1.647
	c-1.087-2.103-2.076-4.255-2.958-6.452c0.383,1.188,1.062,3.007,1.779,4.701c0.732,1.685,1.505,3.24,1.978,3.927
	c0.815,1.862-1.46-2.53-0.773-0.862c-0.994-2.18-1.298-2.846-1.665-3.51c-0.351-0.67-0.763-1.34-1.656-3.652
	c0.503,1.006,0.119-0.168-0.353-1.571c-0.459-1.41-0.947-3.069-0.863-2.98c-0.558-1.519-1.39-5.009-1.606-6.385
	c-0.291-1.392-0.797-3.683-1.161-6.218c-0.374-2.534-0.602-5.311-0.625-7.598c-0.023,1.731,0.096,4.478-0.045,4.286
	c-0.116-2.248-0.186-4.712-0.334-5.137c-0.045,4.005,0.183,4.645,0.306,5.182c0.176,0.536,0.252,0.983,0.671,4.573
	c0.101,1.787,0.36,3.769,1.233,7.401c-0.516-1.628-0.367-0.891-0.654-1.544c-0.346-2.275-0.896-5.198-1.272-8.331
	c-0.388-3.129-0.566-6.466-0.43-9.459c0.066-1.26,0.179-1.412,0.274-1.961c0.104-0.549,0.18-1.498,0.476-4.324
	c-0.135,1.623-0.196,3.251-0.218,4.875c0.048-2.683,0.16-2.994,0.2-3.188c0.059-0.194,0.119-0.27,0.363-2.465l-0.293,1.736
	c0.224-2.7,0.421-3.68,0.729-5.148c-0.174,0.745-0.367,1.49-0.514,2.242c0.141-1.456,0.597-4.124,0.722-4.134
	c0.021-0.38,0.01-0.517-0.021-0.523c0.099-0.271,0.23-0.951,0.617-2.614c-0.265,0.968-0.378,1.683-0.443,1.691
	c0.716-3.184,0.822-3.552,0.777-3.637c-0.026-0.081-0.169,0.129,0.398-1.817c-0.216,0.604,0.037-0.527,0.462-1.916
	c0.125,0.089,0.796-1.781,1.68-3.86c0.87-2.085,1.952-4.375,2.499-5.286l-0.016,0.023c0.812-1.625,1.702-3.211,2.633-4.769
	c-0.572,0.946-0.055-0.127,0.726-1.512l-0.132,0.218c0.878-1.494-1.382,1.583,1.466-2.782c0.513-0.757,1.069-1.484,1.605-2.223
	c-0.286,0.396-0.058-0.021,0.075-0.238c0.57-0.748,1.14-1.495,1.736-2.22c2.417-3.597,5.283-6.198,8.854-9.784
	c-1.056,1.013-2.631,2.589-2.025,1.848c0.675-0.721,1.758-1.733,2.354-2.217l-0.209,0.15c2.396-2.158,4.904-4.188,7.529-6.051
	c-0.716,0.351-4.93,3.748-3.117,2.146c1.012-1.028,3.321-2.589,4.75-3.575c-0.146,0.179-2.685,2.124-0.044,0.261
	c0.29-0.272,2.797-2.057,1.563-1.291c2.779-1.814,6.973-4.181,9.688-5.359c0.826-0.459-0.507,0.184-0.95,0.398L72.92,47.35
	c-1.768,0.918-0.388-0.073-3.754,1.936c-0.421-0.071,4.87-2.883,8.024-4.263c-1.692,0.696-3.357,1.461-5.005,2.265
	c4.005-2.33,9.025-4.528,14.21-6.159c5.182-1.653,10.506-2.743,15.038-3.41c-2.646,0.474-4.863,0.872-4.506,1.001
	c2.796-0.512,4.022-0.658,5.24-0.838c1.221-0.162,2.439-0.342,5.262-0.579l-0.485,0.029c2.913-0.392,6.919-0.318,8.839-0.486
	c-1.271-0.117-4.158,0.185-4.235-0.027c2.386-0.102,4.774-0.098,7.16-0.024c-2.246-0.23-7.165-0.058-9.889,0.15
	c-1.964,0.138,3.955-0.218,3.025,0.008c-6.666,0.348-8.181,0.526-11.47,0.793c-2.01,0.169,2.865-0.622,4.111-0.735
	c4.268-0.275,10.486-0.557,17.125-0.24c1.217,0.013,2.434,0.059,3.649,0.123c1.631,0.24,2.084,0.423,2.869,0.612
	c0.783,0.197,1.898,0.388,4.814,0.892l-1.717-0.422c1.284,0.175,2.129,0.303,2.745,0.435c-2.483-0.582-5.192-1.091-7.483-1.446
	c3.408,0.083,9.623,1.527,14.373,2.951l-2.402-0.74c7.25,1.679,14.395,4.868,19.436,7.524c1.103,0.501,0.062-0.062-1.131-0.682
	c-1.192-0.615-2.543-1.265-1.973-1.092c2.713,1.295,5.77,2.802,6.391,3.34c-1.016-0.88,5.976,3.498,1.121,0.382
	C171.807,53.96,180.9,62.127,187.332,71c-0.27-0.465-0.227-0.499,0.09-0.158c-2.195-3.001-5.826-7.084-7.205-8.632
	c1.826,1.64,3.838,4.335,4.33,4.834c-0.758-0.999-2.432-2.826-2.389-2.927c2.262,2.261,3.264,3.768,4.639,5.538l-0.803-0.915
	c2.113,2.787,2.551,3.658,3.086,4.521c0.502,0.888,1.135,1.751,3.057,4.91c1.461,2.254,0.084-0.078,0.205-0.201
	c0.891,1.5,3.635,6.442,4.146,8.208c-0.611-1.365-1.248-2.72-1.939-4.045c1.393,2.816,2.557,5.551,3.266,7.607
	c-0.047-0.22-0.077-0.405-0.305-1.031c0.883,2.333,1.885,5.379,2.111,6.643l0.367,0.623l-2.092-6.357
	c0.336,0.331,1.729,4.627,2.221,6.537c-1.164-4.195-1.926-6.271-2.613-8.192c-0.721-1.909-1.422-3.659-3.178-6.913l0.521,1.133
	c-2.184-4.039-4.559-8.144-6.985-11.372c0.709,0.888,0.885,1.044,0.602,0.593c-5.402-7.086-11.605-13.471-19.996-19.218
	c-0.801-0.634-1.625-1.241-2.449-1.847l-0.231,0.012c-4.26-2.559-0.806-0.745-3.574-2.37c1.064,0.603,0.853,0.522,1.054,0.675
	c-4.951-2.987-2.855-1.474-5.703-3.011c1.338,0.776,5.471,3.005,4.116,2.468c-2.457-1.492-5.731-3.166-8.53-4.402
	c-2.791-1.257-5.084-2.125-5.427-2.427c-5.059-1.759-10.866-3.308-16.569-4.259c-5.701-0.978-11.279-1.344-15.782-1.343
	c-1.23,0.071,0.766,0.036,0.294,0.086c-1.78-0.092-4.77,0.021-7.309,0.257c-2.54,0.22-4.626,0.54-4.664,0.459
	c-1.702,0.252-2.395,0.509-2.848,0.615c-2.263,0.275-4.963,0.746-7.787,1.413c0.69-0.161,1.386-0.297,2.081-0.436l-0.222,0.072
	c-0.987,0.188-1.964,0.417-2.945,0.635l0.106-0.037c-7.031,1.704-14.82,4.826-20.665,7.821c3.395-1.66-0.751,0.613,0.862-0.16
	c-1.533,0.66-4.058,1.96-6.793,3.676c-2.747,1.7-5.678,3.844-8.183,5.907c0.056,0.027-0.305,0.376,0.312-0.066
	c-0.999,0.755-1.979,1.542-2.938,2.348l0.418-0.282c-5.068,4.429-10.083,9.851-12.56,13.571c1.659-2.198,1.732-2.163,1.97-2.328
	c-2.963,3.81-5.501,7.602-8.166,12.581c0.152-0.262,0.26-0.43,0.281-0.428c-0.658,1.319-1.501,2.887-2.135,4.265l0.037,0.239
	c-1.234,2.605-2.463,6.13-3.509,9.394c-0.118,0.667-0.712,2.659-1.253,5.003c-0.553,2.342-1.029,5.041-1.217,7.015
	c-0.207,1.501,0.539-3.262,0.05,0.956c-0.412,0.571-0.399,5.501-0.671,5.831c0.009,1.242,0.062,2.483,0.127,3.722l-0.122,0.827
	c0.46,3.145,0.126,4.838,0.961,9.493c-0.017-0.252-0.077-0.752-0.02-0.516c0.199,1.514,0.919,4.957,0.28,2.304
	c0.242,1.235,0.836,3.944,1.387,5.844c0.562,1.896,0.936,3.014,0.454,1.152c-0.015,0.295-0.937-3.104-1.208-4.604
	c0.154,0.17,1.039,3.84,1.486,4.683c0.021,0.121,0.137,0.604,0.232,0.951l0.244,0.483c1.297,4.541,3.391,8.873,4.827,11.984
	c0.14,0.152,0.543,0.879,1.34,2.287l-0.11,0.143c0.824,1.457,1.725,2.869,2.639,4.271c-0.353-0.705-0.727-1.395-1.061-2.107
	c2.971,4.618,5.137,7.847,8.105,11.267c0.482,0.349,1.946,1.996,3.738,3.811c1.789,1.818,3.938,3.766,5.524,4.916
	c-0.885-0.775-1.765-1.557-2.618-2.364c2.796,2.528,4.557,3.831,6.262,5.087c1.717,1.242,3.404,2.418,6.357,4.314
	c-2.558-1.531-3.784-2.398-5.304-3.434c-1.496-1.07-3.304-2.299-6.667-5.063c3.332,2.83,6.336,5.118,9.391,7.177
	c3.048,2.064,6.162,3.881,9.776,5.594c-0.448-0.297-2.215-1.25-0.442-0.422c0.66,0.418,2.355,1.233,3.763,1.858
	c1.406,0.623,2.511,1.082,1.932,0.932c2.319,0.894,2.787,0.882,4.209,1.388c2.584,1.008,5.216,1.897,7.885,2.672l-0.242-0.102
	c6.885,1.633,13.416,2.635,20.011,3.062c6.588,0.4,13.257,0.193,20.265-1.014l-0.283-0.048c1.174-0.153,2.35-0.305,3.52-0.502
	c-2.752,0.453,1.168-0.338,1.361-0.473c2.977-0.574,5.928-1.292,8.842-2.153C144.928,191.365,144.371,191.388,142.242,192.044z
	 M38.063,152.921c-0.363-0.621-0.704-1.252-1.042-1.885c-0.215-0.375-0.432-0.767-0.635-1.211c0.202,0.409,0.416,0.811,0.635,1.211
	C37.562,152.002,38.035,152.667,38.063,152.921z M142.721,39.74c0.963,0.367-1.43-0.406-2.135-0.567
	c1.125,0.302,2.238,0.646,3.352,0.989C144.41,40.26,143.205,39.888,142.721,39.74z M38.933,152.275l0.691,0.969l0.716,1.335
	C39.861,153.818,39.383,153.054,38.933,152.275z M58.531,174.956c-0.771-0.64-1.524-1.299-2.271-1.968l0.207,0.146
	c0.735,0.664,1.487,1.308,2.248,1.943L58.531,174.956z M87.736,191.334l-0.553-0.198L87.736,191.334
	c2.226,0.747,3.176,0.807,4.978,1.452C90.396,192.388,88.998,191.782,87.736,191.334z M44.173,161.682l-1.341-1.819
	c0.242,0.472,1.419,2.151,0.489,0.976c-0.59-0.861-2.559-3.744-2.479-3.855C42.424,159.583,44.012,161.072,44.173,161.682z
	 M31.53,93.827l-0.205,0.73c0.282-0.887,0.615-1.758,0.928-2.635L31.53,93.827z M36.56,81.837c0.811-1.321,2.735-4.796,4.295-7.065
	c0.295-0.658-1.404,1.573-2.985,4.408C35.957,82.46,37.35,80.525,36.56,81.837z M61.047,177.749l-0.562-0.536l0.589,0.418
	c-0.8-0.601-1.57-1.236-2.35-1.861c3.185,2.316,5.386,4.08,7.06,5.201C64.277,180.051,60.513,177.059,61.047,177.749z
	 M53.303,59.941c2.053-1.867,6.014-4.9,5.733-4.518c0.005-0.276-3.158,2.183-4.071,3.036L53.303,59.941z M53.44,60.3
	c-2.949,2.702-3.179,2.864-5.384,4.999c2.613-3.006,3.621-3.534,3.337-3.146c2.029-1.873,1.581-1.571,2.638-2.602L53.44,60.3z
	 M50.098,62.843c-0.378,0.395-0.746,0.8-1.107,1.208c-1.256,1.479-1.361,1.916-3.271,3.856c1.061-1.309,2.133-2.61,3.271-3.856
	C49.27,63.72,49.623,63.318,50.098,62.843z M77.735,43.713l-1.531,0.623C77.693,43.668,77.875,43.617,77.735,43.713l1.285-0.489
	C75.762,44.71,77.43,43.93,77.735,43.713z M55.988,57.393c-1.214,1.019-2.384,2.086-3.542,3.168
	C52.703,60.431,54.834,58.376,55.988,57.393z M76.839,44.304c-1.838,0.79-6.43,3.248-5.79,2.915
	C71.398,46.871,75.645,44.738,76.839,44.304z M175.082,57.568c-0.748-0.652-1.523-1.273-2.295-1.9l1.205,0.802L175.082,57.568z
	 M144.654,40.847l0.723,0.162l1.635,0.569C146.229,41.326,145.445,41.073,144.654,40.847z M112.917,36.401
	c0.154-0.034,0.067-0.068-0.2-0.089c-0.487,0.005-0.917,0.003-1.123-0.018c0.441-0.016,0.866-0.005,1.123,0.018l4.092-0.066
	c-0.518-0.087-2.513-0.053-3.28-0.085c2.96-0.294,9.561,0.537,7.691-0.002c1.254,0.082,5.496,0.629,4.019,0.565
	C121.885,36.294,115.471,36.185,112.917,36.401c-0.148,0.029-0.428,0.058-1.007,0.082C112.081,36.46,112.465,36.432,112.917,36.401z
	 M71.405,47.532l-1.753,0.931c-0.93,0.48-1.627,0.86-1.398,0.645c2.225-1.238,0.847-0.369,1.398-0.645L71.405,47.532z
	 M64.851,51.493c1.121-0.708,2.258-1.389,3.41-2.04c-0.59,0.314-1.18,0.628-1.76,0.963c1.725-1.012,3.479-1.969,5.27-2.854
	C68.778,49.245,65.352,51.284,64.851,51.493z M63.736,52.343L63,52.724l1.098-0.622L63.736,52.343l0.168-0.085
	c-1.854,1.242-3.661,2.553-5.417,3.931C60.189,54.844,61.939,53.558,63.736,52.343z M29.1,108.864
	c0.075,1.267,0.252-0.207,0.529-2.141c0.257-1.938,0.722-4.323,0.931-4.946c-0.038-0.15,0.031-0.854-0.062-0.722
	c-0.08,0.134-0.385,1.097-0.863,4.336c0.354-2.809,0.619-3.665,0.77-4.246c0.17-0.578,0.212-0.887,0.46-2.56
	c-0.63,2.637-1.243,5.85-1.313,6.331c0.147-1.057,0.33-2.107,0.521-3.156C29.484,103.5,29.366,106.639,29.1,108.864z
	 M34.032,142.638c0.516,1.302,1.071,2.587,1.652,3.861c-0.546-1.209-1.062-2.431-1.552-3.662L34.032,142.638z M116.682,194.706
	c-0.294-0.046,5.094-0.374,6.385-0.354C120.354,194.588,117.38,194.645,116.682,194.706z M159.484,183.96
	c-1.396,0.724-2.82,1.394-4.25,2.046c0.733-0.562,3.793-1.824,5.703-2.951C161.656,182.77,160.105,183.562,159.484,183.96z
	 M183.484,165.068c0.342-0.367,0.68-0.738,1.008-1.118c-0.387,0.364-0.785,0.716-1.184,1.063L183.484,165.068z M181.904,166.423
	c0.586-0.745-1.642,1.564-2.176,2.101C180.457,167.83,181.197,167.143,181.904,166.423z M196.588,143.298
	c-0.248,0.603-0.488,1.208-0.758,1.802c0.299-0.513,0.58-1.033,0.859-1.557L196.588,143.298z M195.531,146.242
	c-0.344,0.35-0.312,0.148-2.336,4.168c0.026,0.229,0.615-0.85-0.051,0.699c0.754-1.288,1.243-2.408,1.571-3.072
	c-0.479,0.893-0.969,1.984-1.19,2.186L195.531,146.242c0.104-0.127,0.244-0.336,0.508-0.873
	C195.994,145.368,195.803,145.703,195.531,146.242z M187.229,160.329c-0.352,0.487-0.645,0.905-0.774,1.108l-0.197,0.192
	C186.596,161.116,186.918,160.696,187.229,160.329l1.267-1.804c0.209-0.465-1.676,1.988-2.236,2.586
	c0.918-1.149,1.779-2.098,2.826-3.745c-0.178,0.192-0.045-0.017-0.752,0.985c0.512-0.736,1.01-1.48,1.498-2.231
	c1.789-2.511,0.291,0.024-1.336,2.405c-0.035,0.088-0.144,0.279-0.438,0.74C187.803,159.65,187.525,159.979,187.229,160.329z
	 M197.943,141.504l-0.564,1.37c-0.334,0.687-0.193,0.228-0.322,0.458C197.725,141.734,198.57,139.625,197.943,141.504z
	 M130.82,193.748c0.965-0.196-1.297,0.064-3.488,0.355l1.145-0.314c0.074,0.14,4.457-0.58,4.943-0.686
	C134.221,193.107,132.51,193.373,130.82,193.748z M40.632,155.7c-0.312-0.759-3.27-5.584-3.727-6.761
	c0.671,1.31,1.869,3.398,2.796,4.941C40.619,155.428,41.263,156.436,40.632,155.7z M35.778,147.155
	c-0.666-1.403-0.84-1.81-0.688-1.703c-0.278-0.697-0.789-1.815-1.042-2.526C35.292,145.673,35.087,145.555,35.778,147.155
	l0.618,1.301C36.112,147.898,35.933,147.5,35.778,147.155z M79.014,187.66c0.609,0.32,1.229,0.627,1.85,0.927
	c0.997,0.403,2.012,0.763,3.021,1.132C82.245,189.07,80.614,188.398,79.014,187.66z M112.647,195.266
	c-0.262-0.082,3.444-0.01,4.219-0.007c-0.242-0.11-2.723-0.069-4.696-0.172l-1.303-0.067c0.385,0.033,0.813,0.047,1.303,0.067
	c0.737,0.054,0.221,0.095,0.219,0.136h-0.984c0.913,0.034,1.824,0.101,2.737,0.111C113.642,195.322,113.144,195.296,112.647,195.266
	z M170.168,178.112c1.74-1.384,1.953-1.536,3.15-2.431C172.977,176.021,171.41,177.257,170.168,178.112z M94.397,193.027
	c3.657,0.755-1.716-0.562,0.689-0.086c-0.638-0.137-1.274-0.271-1.906-0.431c3.118,0.599,2.175,0.648,4.374,1.056l-1.473-0.271
	c-1.183-0.128,2.227,0.533,2.496,0.652C96.841,193.705,92.937,192.727,94.397,193.027z M173.02,176.053
	c2.808-2.424,2.441-1.841,4.146-3.311C175.01,174.773,175.193,174.326,173.02,176.053z M117.781,195.737l-0.235,0.023
	c1.005,0.005,2.011-0.013,3.017-0.034l0.24-0.037C119.795,195.727,118.787,195.729,117.781,195.737z"/>
<path fill="#A69586" d="M175.779,172.221l1.475-1.335C176.805,171.324,176.303,171.758,175.779,172.221z"/>
<path fill="#A69586" d="M33.154,138.527c-0.054-0.067-0.167-0.365-0.312-0.77C32.876,137.803,32.958,137.993,33.154,138.527z"/>
<polygon fill="#A69586" points="31.297,131.638 31.236,131.373 31.202,131.155 "/>
<path opacity="0.28" fill="#A69586" d="M197.518,89.616c0.414,1.482-0.537-1.381-1.039-2.512
	C196.959,88.241,197.232,88.647,197.518,89.616z"/>
<path opacity="0.28" fill="#A69586" d="M193.672,80.68l1.326,2.756L193.672,80.68z"/>
<path opacity="0.28" fill="#A69586" d="M197.021,87.885c-0.738-1.748-1.451-3.233-2.023-4.449
	C195.541,84.56,196.072,85.484,197.021,87.885z"/>
<path opacity="0.28" fill="#A69586" d="M177.58,60.108l3.168,3.153c-4.59-4.466,0.824,1.001,1.084,1.481L177.58,60.108z"/>
<path opacity="0.28" fill="#A69586" d="M171.098,54.621l1.42,1.073C172.008,55.33,171.545,54.974,171.098,54.621z"/>
<path opacity="0.28" fill="#A69586" d="M169.125,53.28c-1.803-1.299-2.416-1.798-3.221-2.423c2.301,1.409,3.604,2.552,5.192,3.764
	C169.838,53.677,168.584,52.779,169.125,53.28z"/>
<path fill="#A69586" d="M104.28,37.698c0.503-0.062,1.719-0.175,1.76-0.128c-1.227,0.119-2.447,0.28-3.668,0.445
	C100.895,38.195,103.544,37.787,104.28,37.698z"/>
<path fill="#A69586" d="M90.84,40.054c-2.854,0.792-1.326,0.521-2.774,0.906l0.108-0.229C89.063,40.502,89.947,40.257,90.84,40.054z
	"/>
<polygon fill="#A69586" points="92.2,38.705 93.057,38.513 92.078,38.747 "/>
<path fill="#A69586" d="M77.51,45.037c0.646-0.223,1.301-0.424,1.954-0.624C77.167,45.333,77.079,45.233,77.51,45.037z"/>
<path fill="#A69586" d="M67.623,50.42l1.519-0.834c-1.562,0.904-3.109,1.835-4.614,2.832C65.544,51.729,66.581,51.069,67.623,50.42z
	"/>
<path fill="#A69586" d="M56.606,58.312l-0.34,0.347c-0.943,0.802-1.876,1.616-2.786,2.456C54.5,60.156,55.539,59.218,56.606,58.312z
	"/>
<path fill="#A69586" d="M70.208,182.648c0.382,0.469-4.703-2.618-6.118-3.611C65.181,179.523,68.019,181.696,70.208,182.648z"/>
<path fill="#A69586" d="M171.859,175.572c-1.494,1.16-3.045,2.242-4.609,3.301C170.805,176.295,168.277,178.205,171.859,175.572z"/>
<path opacity="0.28" fill="#A69586" d="M200.084,107.124l-0.104-1.317L200.084,107.124z"/>
<path opacity="0.28" fill="#A69586" d="M200.068,108.312l0.004,0.111C200.074,108.405,200.074,108.374,200.068,108.312z"/>
<path fill="#A69586" d="M144.479,184.929l1.037-0.42C144.871,184.755,144.578,184.877,144.479,184.929z"/>
<path fill="#A69586" d="M69.303,181.646c0.032,0.006,0.058,0.01,0.062,0.002C69.257,181.604,69.222,181.591,69.303,181.646z"/>
<path opacity="0.28" fill="#A69586" d="M197.363,91.942l0.16,0.58C197.58,92.635,197.424,92.079,197.363,91.942z"/>
<path fill="#A69586" d="M162.25,176.302c0.053-0.042,0.098-0.079,0.121-0.104C162.299,176.254,162.271,176.28,162.25,176.302z"/>
<path opacity="0.28" fill="#A69586" d="M171.443,52.572L171,52.225L171.443,52.572z"/>
<path fill="#A69586" d="M57.233,171.652c-0.223-0.156-0.347-0.24-0.414-0.278C57.064,171.555,57.243,171.682,57.233,171.652z"/>
<path opacity="0.28" fill="#A69586" d="M56.881,171.706c3.138,2.325-0.57-0.626-0.062-0.333c-0.833-0.625-2.527-2.053-1.759-1.337
	c-1.489-1.397-4.699-4.017-6.145-5.703c-0.078-0.058,0.778,0.896-0.316-0.174c-1.603-1.632-1.409-1.583-2.026-2.281
	c-0.501-0.464-2.772-3.09-2.531-2.854c-0.988-1.156,0.907,1.356-0.486-0.252c-0.993-1.051-2.112-2.666-3.118-4.032
	c-1.116-1.712,1.211,1.642,1.783,2.269c-1.188-1.513-2.307-3.083-3.377-4.684c-0.873-1.456,0.483,0.595,1.452,1.992
	c-1.285-1.909-2.868-4.408-3.288-4.953c-0.714-1.254-1.098-1.915-1.713-3.127c0.695,1.158,0.761,1.029,1.847,2.84
	c1.791,2.982-0.764-1.012,0.761,1.525l0.209,0.168c0.633,1.103,1.235,1.916,2.018,3.031c0.412,0.641-0.121-0.121-0.42-0.531
	c1.388,2.033,2.531,3.627,3.775,5.01c-2.051-2.601-4.907-6.699-5.548-8.008c-1.183-1.853-2.298-3.75-3.313-5.703
	c-0.038,0.018,0.951,2.096,0.045,0.461c-0.26-0.729-1.08-2.499-2.054-4.852c0.228,0.924-1.608-3.736-1.216-2.521
	c0.482,1.09,0.606,1.682,0.669,1.838c-0.913-2.294-0.225-0.273-0.725-1.535c-1.499-4.257,0.073,0.149-1.291-4.06
	c0.335,0.875,1.18,3.1,2.146,5.349c-0.02-0.172-0.9-2.276-1.173-3.271c0.428,1.383-0.442-0.918-0.066,0.215
	c-1.241-3.342-2.465-7.334-3.233-11.605c0.139,0.319,0.497,2.108,0.883,3.629c0.387,1.521,0.771,2.777,0.693,2.094
	c-0.537-2.048-0.617-2.02-0.952-3.687c-0.203-1.427-0.895-4.917-1.142-7.8l0.074,1.279c-0.159-1.091-0.304-3.12-0.343-4.399
	l0.037,0.333l-0.085-1.255c-0.004-0.196,0-0.242,0.006-0.239c-0.108-1.383-0.063-4.922,0.124-7.568
	c-0.095-0.003-0.181,2.623-0.19,3.895c-0.041,0.345-0.065,2.801-0.128,1.613c0.005-3.3,0.027-5.609,0.475-9.328l-0.168,1.177
	c0.075-1.188,0.309-2.789,0.613-4.547c0.627-3.18-0.296,2.362,0.088,0.436c-0.143,1.264-0.51,3.446-0.438,3.792l0.373-2
	c0.179-1.692,0.607-3.517,0.853-4.678l-0.308,1.241c-0.048-0.266,0.271-1.411,0.402-1.995l-0.305,0.813
	c-0.408,1.82-0.494,3.1-0.772,4.429c0.487-3.272,0.225-2.547,1.089-6.447c0.093-0.161-0.164,0.753-0.217,1.165
	c0.341-1.316,0.562-2.746,1.234-4.854c-0.348,1.22-0.79,3.217-0.313,1.667l0.222-1.165c0.305-0.973,0.222-0.561,0.344-0.96
	c0.444-1.382-0.207,0.282,0.522-1.89c0.118-0.321,0.396-1.03,0.305-0.707l1.231-3.521c-0.8,2.057-0.972,2.085-0.154-0.062
	c1.241-2.991,2.146-5.014,3.283-6.927l0.638-1.304c-0.373,0.856,1.019-1.779,1.586-2.637c0.213-0.265-2.431,4.207-2.245,4.304
	c1.017-1.864,0.629-1.021,0.337-0.401c1.087-2.025,0.301-0.804,0.734-1.728c0.018,0.006,2.002-3.368,1.387-2.154
	c1.021-1.663,1.136-1.994,1.95-3.183c-0.09,0.202-0.188,0.437-0.065,0.353c0.068-0.16,1.141-1.661,1.363-1.942
	c-0.211,0.266,0.319-0.603-0.638,0.799c0.153-0.41,2.354-3.236,2.255-3.189c0.168-0.095,2.283-2.864,3.521-4.152
	c-0.289-0.021-2.106,2.551-2.6,2.925c1.399-1.93,5.206-6.087,7.999-8.723c2.482-2.2,0.048,0.054,0.605-0.342
	c-2.218,2.103-2.793,2.617-4.591,4.552c1.973-2.124,5.457-5.366,7.062-6.767c2.434-2.009,2.83-2.067,5.901-4.346
	c-0.457,0.237-0.405,0.168-1.382,0.856c0.803-0.631,1.802-1.29,2.712-1.912c0.534-0.421-1.439,0.915-0.198,0.02
	c0.506-0.32,1.574-1.019,1.391-0.84l-0.207,0.146c3.05-2.021,2.311-1.285,4.96-2.98c-0.235,0.098-0.813,0.462-1.483,0.84
	c-0.54,0.252,1.097-0.806,2.368-1.526c-0.203,0.172,1.121-0.609,2.04-1.054c0.64-0.252-2.255,1.204-2.664,1.518
	c0.82-0.454,1.647-0.894,2.48-1.324l-0.529,0.263c0.895-0.489,1.784-0.989,2.697-1.447c-1.903,0.965-0.967,0.353-0.127-0.06
	c1.921-0.927,3.896-1.743,3.695-1.56c0.197-0.186,2.632-1.222,4.396-1.872c-1.932,0.685-0.271,0.019,0.28-0.217
	c0.973-0.325,1.952-0.632,2.935-0.923c-3.063,1.061,0.672-0.15-0.03,0.157c-0.857,0.374-2.726,0.979-4.327,1.576
	c3.172-1.024,4.382-1.678,7.184-2.439c0.013,0.043-0.221,0.154-1.441,0.517c0.493-0.127,2.504-0.844,4.416-1.289
	c-0.506,0.105-1.602,0.305,0.282-0.221c0.84-0.171,1.676-0.35,2.519-0.494c2.921-0.612,0.976-0.324,3.384-0.856l-1.603,0.243
	c0.228-0.155,3.272-0.617,3.339-0.719c-1.519,0.254-2.346,0.488-3.932,0.781c-0.617,0.034,1.995-0.47,2.904-0.66
	c3.304-0.507,2.627-0.39,5.101-0.637c0.104,0.114-4.031,0.74-3.477,0.87c3.185-0.558,7.852-1.043,9.978-1.064
	c2.894-0.169,2.63-0.261,2.199-0.338c1.198-0.055,1.791-0.031,2.562-0.022l-1.359,0.063c3.577-0.082,5.631-0.078,9.383,0.209
	c2.119,0.15,1.275-0.003,0.771-0.124l2.306,0.217l-0.353-0.055c0.527-0.045,2.562,0.233,4.084,0.481
	c0,0.042-0.934-0.089-0.852-0.051l4.471,0.746c-0.004,0.038-0.938-0.055-2.535-0.354c-0.17-0.04-0.084-0.04-0.248-0.079
	l-2.715-0.348c3.14,0.381,4.972,0.864,4.873,0.941c3.107,0.564-2.502-0.601,1.193,0.093c4.816,1.161,9.139,2.225,11.639,3.389
	c2.188,0.692,4.785,1.557,8.058,3.031c0.041-0.088,2.188,0.983,1.913,0.747c-3.049-1.588-5.913-2.468-8.438-3.546
	c-1.457-0.476-0.998-0.234-1.66-0.419c-1.285-0.435-2.512-0.82-2.664-0.925c3.021,0.925,0.883,0.027,4.676,1.361
	c-0.448-0.263-3.545-1.291-4.93-1.716c0.418,0.083,0.016-0.082-0.881-0.381c1.01,0.22,3.234,0.85,4.383,1.207
	c-0.412-0.103,0.316,0.173-0.022,0.081c1.34,0.417,2.67,0.869,3.985,1.357c1.185,0.522,1.479,0.727,0.824,0.497
	c2.152,0.877,5.746,2.495,5.699,2.618c2.686,1.342-0.814-0.5-1.045-0.622l0.236,0.106c-0.951-0.466-1.924-0.889-2.89-1.325
	c-0.254-0.29,3.273,1.531,3.777,1.648c0.574-0.021,3.957,2.112,5.877,3.238c-0.769-0.391-1.553-0.746-2.326-1.119l1.961,1.07
	c-1.153-0.568-1.201-0.483-2.963-1.345c2.721,1.433,6.392,3.812,8.021,4.919c0.592,0.492,0.836,0.737,0.52,0.594
	c2.582,1.679,3.826,2.877,5.861,4.566c2.197,1.749-2.107-1.878-0.479-0.643c0.627,0.581,1.83,1.542,2.408,2.047
	c-0.646-0.555-2.892-2.539-4.512-3.807c1.223,0.941,1.135,0.776,1.495,1.012c-0.657-0.553-1.346-1.068-2.018-1.601
	c0.209,0.001,2.516,1.926,3.455,2.667c-0.648-0.414-0.328-0.142-0.984-0.543c1.761,1.364,4.242,3.599,5.535,4.974
	c0.762,0.813-0.692-0.628-1.166-1.006c0.336,0.39,1.625,1.515,1.871,1.873c-0.287-0.19-0.973-0.95-1.543-1.473
	c1.553,1.503,3.053,3.063,4.49,4.678c-0.025,0.021-1.127-1.158-1.82-1.911c1.312,1.466,2.31,2.505,3.885,4.189
	c1.392,1.729,2.859,3.823,2.359,3.255c0.631,0.801,0.254,0.234,0.285,0.199c1.736,2.436,2.029,2.639,3.01,4.138l-0.68-1.183
	c1.51,2.484,0.502,0.482,1.803,2.7c-0.289-0.315-0.279-0.124-0.127,0.29c0.295,0.314,1.057,1.753,1.59,2.725
	c-0.26-0.646,1.205,2.058,0.416,0.444c1.271,2.237,1.688,3.361,2.555,5.033c-0.459-1.102,0.976,1.998,0.611,1.032
	c0.986,2.291,1.457,3.941,1.148,3.335c-0.299-0.806-0.769-2.098-0.803-1.981c0.575,1.395,1.104,2.807,1.596,4.234
	c0.32,1.075,0.727,2.46,0.678,2.661c0.539,1.352,1.045,4.135,1.389,5.191c-0.408-1.48-0.598-2.669-0.742-3.241l0.197,0.672
	l-0.09-0.354c0.229,0.613,0.414,1.24,0.623,1.861c-0.385-1.845-0.152-0.307-0.836-2.878c-0.227-1.133,0.168,0.111,0.549,1.351
	c0.355,1.247,0.691,2.49,0.459,1.309c-0.406-1.934-0.49-1.557-0.955-3.113l0.107,0.41c-0.35-1.177-0.723-2.348-1.133-3.505
	c-0.004-0.178,0.383,0.869,0.383,0.869c-0.678-2.126-1.123-3.337-1.58-4.586c-0.463-1.249-0.963-2.532-1.973-4.714
	c0.137,0.324,0.399,1.237-0.549-0.68c-0.712-1.36-0.716-1.56-1.306-2.695c0.385,0.662,0.765,1.24,1.183,2.181l0.062-0.122
	c0.842,1.591,1.074,1.955,1.354,2.477c0.283,0.52,0.646,1.184,1.566,3.461c0.17,0.173,1.471,3.498,2.178,6.082l-0.303-1.266
	c0.906,2.611,0.08,0.522,1.107,3.907c0.227,1.464,0.604,4.12,0.078,2.211c0.487,2.446,0.698,3.273,1.039,5.491
	c0.069,1.377-0.222-0.662-0.31-0.387c0.256,1.612,0.519,3.651,0.453,2.439c0.088,1.031,0.186,2.06,0.229,3.092
	c-0.021,0.083-0.088-1.024-0.137-1.456l0.336,4.185c-0.018-0.252-0.068-1.029-0.063-1.366l0.223,3.767
	c-0.082-1.887,0.051-2.061-0.115-4.036c0.039,0.168,0.117,0.504,0.144,1.537c0.02-1.638-0.119-3.27-0.103-3.961
	c0.054,1.382,0.195,2.259,0.222,2.549c-0.035-1.241-0.271-3.703-0.414-4.525c0.143-0.2-0.697-4.776-0.326-3.182
	c-0.074-0.251-0.396-2.038-0.56-2.976c0.087,0.072,0.57,2.438,0.773,3.457c0.719,4.796-0.097-0.072,0.016,1.055
	c0.166,1.219,0.312,2.44,0.423,3.666c-0.019-0.373,0.235,1.463-0.005-0.935c0.214,1.103,0.427,3.435,0.423,5.339
	c0.055,0.436-0.005-0.952-0.021-1.382c0.057,0.427,0.295,2.761,0.191-0.277c0.028,0.868-0.127-1.467-0.105,0.094
	c-0.047-1.21-0.299-4.498-0.109-3.207c-0.129-1.477-0.578-4.216-0.789-5.411c0.006-0.357,0.183,1.021,0.306,1.621
	c-0.22-1.403-0.472-2.8-0.769-4.188c0.064,0.401,0.119,0.803,0.166,1.207c-0.537-3.074-1.195-4.968-1.94-7.355
	c0.202,0.296,0.797,2.293,1.213,3.882c-0.244-1.556-0.295-0.994-0.974-3.503c-0.08-0.342-0.082-0.436-0.004-0.281
	c-0.223-0.655-0.451-1.308-0.703-1.952c-0.174-0.577-0.047-0.261,0.041-0.013c-1.266-3.319-0.059,0.109-1.768-4.325
	c0.975,2.687,0.938,2.242,1.693,4.534c0.371,1.341-0.99-2.576-1.305-3.201c-0.82-2.173-0.753-2.495-2.037-5.137
	c0.881,1.873,0.153,0.024,1.301,2.731c0.684,1.497-0.289-0.823-0.367-1.164c-0.334-0.7,0.109,0.518-0.76-1.462l0.051,0.074
	c-0.531-1.056-1.074-2.105-1.654-3.133c-1.428-2.974-3.777-6.383-4.957-8.299l0.199,0.492c-1.145-1.719-2.912-4.062-3.859-5.184
	c0.271,0.222,1.127,1.304,2.017,2.468c-2.191-3.002-4.396-5.435-6.166-7.195c1.178,1.383,1.348,1.581,2.436,2.917
	c-1.694-1.708-1.784-2.223-4.004-4.396c0.021-0.136,0.73,0.616,0.265-0.013c-0.947-0.879-2.498-2.384-3.623-3.318
	c-0.521-0.59,0.6,0.221,2.885,2.456c1.656,1.766,3.574,3.63,4.795,5.212c-0.24-0.325-0.486-0.647-0.738-0.962
	c1.604,1.813,2.52,2.958,3.803,4.584l-0.063-0.058l0.707,0.765l-0.672-0.898c0.526,0.568,1.967,2.416,2.352,2.995
	c-1.996-2.844-2.326-2.91-3.396-4.154c-1.931-2.441-2.611-3.47-4.074-4.943c-0.08-0.16-1.223-1.473-0.242-0.485
	c1.207,1.237,1.938,2.22,2.113,2.292c-1.213-1.361-0.697-0.887-2.6-2.909c-0.435-0.311-1.935-1.741-3.435-3.037
	c-1.537-1.4-3.568-3.149-4.838-4.2c1.623,1.291,3.229,2.609,2.883,2.209c-0.959-0.739-3.06-2.688-2.676-2.189
	c-1.854-1.56-5.172-3.924-5.332-4.155c1.916,1.261,3.645,2.667,5.17,3.868c-0.414-0.339-0.806-0.692-0.541-0.515
	c0.74,0.604,1.485,1.201,2.205,1.83c-1.629-1.432-1.26-1.204-3.465-2.895c0.133,0.114,0.399,0.343,0.186,0.187
	c-0.545-0.426-1.244-0.94-1.809-1.351l-0.009-0.14c-1.702-1.187-4.946-3.561-8.317-5.354l0.31,0.149
	c-2.642-1.505-2.97-1.44-5.937-2.865c0.883,0.367,0.508,0.137,0.377,0.018l-3.771-1.788c1.736,0.809-1.235-0.401,0.027,0.175
	c0.045,0.131-3.07-1.19-4.705-1.767c-0.91-0.526,5.041,1.866,2.662,0.785c-1.602-0.658-2.045-0.718-0.914-0.265
	c-2.012-0.813-5.131-1.879-6.609-2.408c-2.518-0.645-3.514-0.946-5.145-1.21c1.348,0.322,1.455,0.249,3.117,0.758l-1.865-0.397
	c-2.432-0.617-4.371-1.104-6.07-1.448l1.797,0.311l-0.09-0.001c0.688,0.094,2.969,0.634,2.728,0.509
	c-1.621-0.281-2.883-0.655-5.023-0.98h0.089c-3.765-0.595-6.509-1.136-8.939-1.155c0.697,0.043,2.068,0.282,1.635,0.269
	c-0.861-0.157-3.193-0.31-3.105-0.366l0.783,0.044c-2.161-0.185-3.463-0.243-4.249-0.249c-0.6,0.053,0.012,0.117-1.551,0.118
	c-3.814-0.088,1.551-0.146-1.043-0.236c-1.185,0.003-2.371,0.056-3.554,0.105l-0.784-0.037c-5.289,0.148-9.336,0.8-14.858,1.836
	c-0.118-0.122,3.892-0.857,5.271-1.033c-1.739,0.146-4.196,0.66-6.503,1.082c-2.134,0.43-3.698,0.929-3.351,0.907
	c-2.591,0.688-1.86,0.423-2.2,0.483c-0.815,0.316-4.067,1.243-6.097,1.991l-0.115-0.031c-1.057,0.386-2.098,0.817-3.137,1.243
	c0.81-0.313,0.106,0.029,0.122,0.068l-0.803,0.313c3.113-1.068,6.947-2.676,10.278-3.34c-0.991,0.295,0.355-0.033-0.641,0.263
	c-0.834,0.216-0.997,0.271-1.093,0.267c-0.481,0.2-1.789,0.637-0.051,0.119c-0.043,0.148-3.528,1.157-5.845,2.08
	c-1.899,0.6,1.89-0.848,2.86-1.207l-2.928,1.054l0.285-0.218c-3.217,1.259-0.852,0.416-1.548,0.784
	c-0.827,0.457-2.883,1.145-3.746,1.537l0.941-0.429c-2.479,1.009-2.973,1.381-5.145,2.422l-1.047,0.439
	c2.748-1.278,3.268-1.755,4.867-2.426c-4.057,1.733,0.767-0.607,2.025-1.191l-4.306,1.839c-2.451,1.301-5.229,2.564-7.452,4.075
	c-1.27,0.74,1.072-0.729-0.266,0.069c-2.465,1.453-4.991,3.148-7.388,5.002c-1.262,0.936-1.063,0.747-1.443,0.976
	c-3.004,2.29-4.931,4.086-6.858,5.99c-1.916,1.917-3.836,3.953-6.498,7.098l0.734-0.962c-1.132,1.309-2.065,2.463-2.521,3.191
	c-1.512,1.597-4.209,6.053-5.722,8.384c-1.824,3.166-1.753,3.399-2.971,5.988c-0.036-0.016,0.263-0.837-0.387,0.499
	c-3.79,8.557-6.026,16.858-6.603,27.167c-0.017-0.084,0.004-0.604,0.018-0.864c-0.46,6.683,0.287,13.279,1.293,18.722
	c0.209,1.024,0.954,4.051,0.814,3.102c-0.298-1.263-0.229-1.458-0.156-1.386c0.582,2.391,0.73,2.975,0.792,3.373
	c0.066,0.396,0.057,0.602,0.544,2.174c0.163,1.041-0.685-1.962-0.783-1.938c0.441,1.531,0.947,3.039,1.481,4.535
	c0.829,2.558,1.919,5.016,2.843,7.162c-0.411-0.957-0.24-0.264-0.892-1.875c0.107,0.238,0.045,0.074,0.158,0.312l-1.177-2.791
	c-0.196-0.448-0.391-0.837-0.996-2.512c1.041,2.951,2.746,6.847,4.005,9.322c-0.199-0.58,1.062,1.983,1.508,2.629l0.077,0.159
	c0.03-0.017,0.917,1.458,1.195,1.904l0.26,0.656c0.649,1.028-0.129-0.329,0.52,0.698c0.466,0.724,1.546,2.371,2.588,3.847
	c1.036,1.481,2.034,2.793,2.11,3.006c1.312,1.625,1.742,2.05,3.15,3.682c-0.135-0.104-0.489-0.485-0.557-0.538
	c2.963,3.506,7.072,7.383,10.405,10.159c2.768,2.214,5.263,3.944,7.183,5.106c-0.808-0.502-3.055-2.122-1.596-1.188
	c0.808,0.5,2.013,1.336,3.271,2.094c-0.339-0.111,3.144,1.984,0.605,0.507c0.282,0.245,1.634,1.075,2.938,1.792
	c1.296,0.728,2.529,1.361,2.477,1.414c0.619,0.298,4.359,2.16,5.836,2.688c0.289,0.208-2.074-0.888-2.087-0.847l1.743,0.768
	l-0.018,0.037c3.33,1.479,4.048,1.516,6.076,2.251l-0.086-0.013l1.395,0.46l-1.666-0.466c2.208,0.758,3.379,1.063,5.87,1.764
	l0.241,0.109l1.518,0.377c-0.258-0.064-0.348-0.071-0.188-0.02c1.441,0.309,4.709,1.112,6.08,1.271
	c1.011,0.226,1.849,0.504,3.22,0.65l-0.277,0.084c-3.399-0.59-1.254-0.295-4.817-0.982c1.287,0.383,3.783,0.926,6.596,1.354
	c2.81,0.437,5.935,0.732,8.439,0.865c4.049,0.232,10.723,0.154,12.426-0.207l-0.422,0.105c2.271-0.133,4.539-0.33,6.797-0.618
	c5.746-0.798,11.574-2.177,15.733-3.638l1.175-0.308c2.139-0.817,5.776-2.196,9.116-3.771c3.353-1.545,6.39-3.291,7.617-4.162
	c2.258-1.26-0.61,0.486-0.821,0.642c1.68-0.903,4.299-2.724,5.856-3.655c0.029,0.041-2.213,1.504-1.187,0.866
	c1.193-0.7,1.609-1.151,2.935-1.981c-0.604,0.337,1.947-1.579,3.744-3.045c-0.334,0.27-0.338,0.264-0.486,0.367
	c-0.301,0.168,1.056-0.899,1.783-1.507c0,0-0.06,0.068-0.254,0.233c4.592-3.832,9.104-8.436,13.039-13.592
	c3.946-5.146,7.289-10.846,9.797-16.608l-0.892,2.138c0.738-1.647,1.959-4.6,2.326-5.562l-0.09,0.248
	c1.271-3.122,1.129-3.618,2-6.058l-0.127,0.496c1.076-3.901,1.699-6.248,2.207-10.185c0.436-3.084,0.441-2.743,0.67-4.893
	c0.127-1.812,0.047-2.668,0.047-2.761l-0.043,0.869c-0.104,0.942,0.021-1.9-0.018-3.193c-0.152,0.946-0.244,0.441-0.523,4.042
	c-0.151,2.652-0.344,2.562-0.69,5.534c-0.072,1.716-0.744,4.218-1.232,6.901c0.238-1.434-0.819,3.146-0.371,0.802
	c-0.307,1.065-1.438,5.625-2.315,7.593c0.094-0.336,0.043-0.266,0.201-0.748c-0.974,2.827-0.765,1.901-1.604,3.952l0.135-0.038
	c-0.295,0.807-0.471,1.012-0.768,1.715c0.27-0.543,0.809-1.697,0.586-1.061c-0.392,0.949-0.691,1.754-1.181,2.751
	c-0.047-0.008,0.281-0.709,0.476-1.19c0.019,0.007-1.033,2.166-1.156,2.291c0.338-0.785,0.834-1.778,1.078-2.5
	c-1.358,2.84-0.133,0.219-0.867,1.567c0.312-0.327-1.141,2.479-1.965,3.968c-0.127,0.129,0.558-1.057,0.728-1.444
	c-1.748,2.737-2.316,4.273-4.699,7.704c0.033-0.079,0.312-0.508,0.453-0.727c-1.072,1.649-1.98,2.678-2.695,3.731
	c-1.164,1.474-0.312,0.194-2.127,2.446c0.664-0.555-2.227,2.575-2.191,2.707l-1.574,1.564c-1.327,1.447,0.564-0.184-2.161,2.521
	c-2.58,2.359,0.084-0.389-1.455,0.951l-0.576,0.635l-1.312,1.095l0.191-0.179c-0.752,0.693-2.199,1.873-2.236,1.836
	c0.113-0.125,0.965-0.836,1.062-0.967c-1.222,1.181-5.357,4.025-6.73,5.16c-0.848,0.54-2.573,1.666-2.395,1.461
	c-0.703,0.592-3.869,2.338-5.025,3.021c0.134-0.114-1.008,0.459-1.901,0.947c1.225-0.602,0.487-0.166-0.316,0.297
	c-1.078,0.521-4.141,1.99-4.66,2.091c-1.688,0.794-1.033,0.595-1.381,0.833c-1.123,0.433-4.703,1.785-4.113,1.421
	c0.971-0.328,3.113-1.152,2.678-1.076c-1.834,0.679-0.771,0.351-2.274,0.929c0.104-0.062-1.051,0.309-0.774,0.166
	c-0.892,0.325-2.146,0.77-3.445,1.149c2.033-0.592-1.262,0.5-0.035,0.16c0.635-0.242,1.275-0.464,1.902-0.72
	c2.328-0.813,0.514-0.104,1.403-0.379c-4.094,1.422-3.239,1.284-7.155,2.451c-0.74,0.191-2.076,0.463-2.492,0.568
	c1.322-0.332,1.039-0.385,0.283-0.221c-2.195,0.621-3.994,0.828-5.839,1.119c1.601-0.25,0.775-0.028,0.195,0.103
	c-3.846,0.706-1.521,0.198-3.211,0.412c-5.974,0.802-9.821,0.804-14.647,0.84c0.764,0.044,1.527,0.096,2.292,0.116l0.761-0.111
	c1.786,0.057-0.324,0.235-1.346,0.312c-0.262-0.026-3.243-0.051-2.051-0.092l-2.895-0.053c0.425,0.072,2.301,0.108,0.946,0.113
	c-0.95-0.057-3.916-0.272-2.048-0.219c-1.524-0.088-3.479-0.235-3.146-0.145c-2.456-0.257,0.267-0.087,1.363-0.061
	c-1.944-0.161-1.682-0.248-1.095-0.213l-2.697-0.276c0.59,0.05,0.596-0.001,1.182,0.034c-1.765-0.229-3.044-0.292-4.533-0.609
	l-0.687-0.02c-2.421-0.449-3.496-0.703-4.531-0.938c-1.035-0.242-2.03-0.459-4.244-1.051l0.722,0.261
	c-3.374-0.812-2.442-0.72-6.884-2.132c-2.499-0.817-4.08-1.445-3.797-1.22c-1.431-0.522-1.723-0.727-2.341-1.028
	c-1.113-0.396-3.477-1.365-5.115-2.271c1.152,0.543,2.08,0.967,3.17,1.438c-0.286-0.208-3.677-1.754-5.36-2.746
	c-1.233-0.576-5.108-2.702-7.188-4.028c0.884,0.679,0.454,0.57-1.42-0.621c0.312,0.147-2.418-1.765-3.578-2.765
	c0.626,0.427-2.581-2.233-0.038-0.251c0.725,0.598,1.006,0.938,2.063,1.664c-0.588-0.503-2.187-1.788-3.786-3.184
	c0.15,0.072,1.025,0.754,1.899,1.426C56.566,171.406,56.83,171.633,56.881,171.706z"/>
<path opacity="0.28" fill="#A69586" d="M197.363,91.942l-0.096-0.338l0.1,0.419C197.334,91.884,197.34,91.882,197.363,91.942z"/>
<path fill="#A69586" d="M26.952,115.021c-0.012-0.168-0.039-0.474-0.053-0.479C26.917,114.75,26.934,114.932,26.952,115.021z"/>
<path fill="#A69586" d="M39.454,71.321c-0.036,0.037-0.048,0.039-0.067,0.05C39.371,71.406,39.382,71.402,39.454,71.321z"/>
<path opacity="0.28" fill="#A69586" d="M197.439,95.055l-0.218-0.803L197.439,95.055z"/>
<path fill="#716558" d="M123.451,19.661c4.426-1.183,6.551-7.923,12.033-5.783c-1.365,6.955-5.66,10.99-7.869,17.116
	c-1.287,0.691-1.492,2.113-2.307,3.239c-0.916,1.267-3.003,2.115-3.013,4.164c4.519,0.479,7.972-3.975,13.188-3.703
	c6.576,0.352,6.35,9.865,5.332,15.729c2.153,1.421,5.776-0.461,8.789-0.23c2.268,0.179,3.475,1.37,5.075,2.089
	c0.4,1.852,2.888,3.675,1.156,5.555c-0.897,0.962-5.123,1.458-7.166,1.837c-3.979,0.759-7.719,3.416-9.721,3.709
	c0.307,3.03-2.265,6.321-0.916,9.708c6.295,3.409,14.668,4.764,19.42,9.716c0.065,1.706-1.988,3.225-2.303,5.328
	c-6.339-2.542-11.466-6.291-18.052-8.558c-3.258,3.828-1.938,12.248-7.397,13.877c-4.742-0.897-7.004-4.262-9.707-7.174
	c-2.626,1.312-5.197,2.679-7.641,4.161c0.589-1.489,1-3.165,2.768-3.47c0.739-4.279,4.485-5.545,5.784-9.25
	c-8.871-1.584-19.217,4.086-27.521-0.236c-2.087-2.535-2.619-6.627-3.939-9.94c4.191-6.379,16.473-4.674,16.668-15.044
	c1.546-3.217,4.399-5.148,5.089-9.255c2.996-3.86,5.895-7.812,7.622-12.947c-2.348-1.75-7.211-0.529-9.018-3.233
	c-0.561-1.036-0.63-2.145-1.621-2.313c-2.049-0.38-2.004,2.72-3.934,3.013c-0.808,1.646-1.156,3.762-3.232,4.156
	c-0.218-1.45,1.016-1.445,0.915-2.776c-3.525,1.557-4.095,6.079-6.704,8.558c0,0.626,0,1.234,0,1.844
	c-0.762,1.318-1.877,2.279-2.072,4.167c3.2-0.418,1.203-6.035,4.395-6.469c-0.619,5.405-3.937,9.667-4.86,15.486
	c-0.377,0.568-1.02,0.843-1.388,1.396c0.651,2.034-0.809,3.484-1.15,4.865c-0.327,1.243,0.179,2.497,0,3.931
	c-0.327,2.461-1.994,5.212-2.551,7.856c-0.239,1.113,0,2.266-0.239,3.243c-0.188,0.826-0.899,1.667-1.144,2.543
	c-0.543,1.958-0.455,4.194-1.149,6.243c-0.235,0.636-0.982,1.208-1.17,1.86c-0.677,2.237-0.746,4.004-3.005,4.623
	c-1.011,0.23-1.067-0.473-1.623-0.695c-4.881,1.265-8.22-2.626-10.642-5.33c0.682-10.642-1.068-20.365,0.465-31.919
	c-0.628-3.152-1.399-8.935,0.238-11.561c2.085,0.538,2.733,2.499,4.62,3.232c-0.108,1.25,0.871,1.808,1.149,2.783
	c1.229,4.162-0.484,8.489-0.684,12.953c-0.216,4.908-0.314,9.543,0.461,13.878c2.114,0.806,3.041-0.543,4.392-1.163
	c3.736-8.824,7.239-17.896,10.642-27.057c0.901-0.5,1.052-1.731,1.852-2.314c3.436-9.819,9.858-16.664,13.421-26.376
	c3.329-3.932,6.152-10.692,10.637-14.103c1.201-0.914,3.153-1.667,5.552-1.617c-0.043,0.194,0.09,0.208,0.23,0.232
	c4.498,2.137,3.121,8.994,2.771,14.565C123.557,15.776,122.297,18.179,123.451,19.661z M128.312,40.476
	c0.989,3.564,1.483,7.672,3.004,10.642c1.315,0.412,2.957,0.122,4.168-0.232C138.184,45.651,134.758,35.819,128.312,40.476z
	 M122.994,43.248c-2.398,1.851-3.703,4.782-6.242,6.487c-0.246,1.947-3.004,2.516-2.553,4.394c2.892,0.333,9.554-1.167,11.337-3.01
	c0.364-2.502,0.364-6.866-2.086-7.87C123.303,43.248,123.15,43.248,122.994,43.248z M139.418,57.372
	c0.314,0.362,0.658,0.726,0.918,1.148c1.889,0.04,2.928-0.787,3.008-2.531C141.77,55.021,139.602,55.62,139.418,57.372z
	 M130.164,57.14c-0.654,6.59-3.707,10.778-7.629,14.1c-0.682,0.487-2.385-0.067-2.318,1.162c0.271,1.676,2.84,1.024,4.625,1.159
	c2.822-2.145,4.24-4.585,6.711-7.405c1.193-1.356,3.084-2.087,3.695-3.231c0.99-1.824,1.084-4.661,0.697-6.935
	C133.947,55.397,131.539,56.323,130.164,57.14z M108.421,61.531c-0.848,3.306-4.48,6.06-3.008,10.169
	c1.491,0.518,3.918,0.103,5.789,0.241c2.447-2.708,7.025-3.304,6.7-8.795C115.781,60.95,111.028,61.6,108.421,61.531z M92.92,73.333
	c0.707,0.443,1.357,0.938,2.31,1.152c2.095-2.226,3.28-5.358,4.172-8.792C96.254,66.267,92.057,68.718,92.92,73.333z
	 M128.779,73.561c0.502,1.108,1.795,1.434,3.231,1.615c1.595-0.976,2.066-4.234,1.853-6.245
	C132.105,70.415,130.084,71.627,128.779,73.561z M125.537,78.187c-1.473,1.851-3.83,2.796-4.631,5.32
	c1.873,1.679,3.889,3.206,6.709,3.934c2.766-1.284,3.533-5.696,3.701-8.795C129.906,77.503,127.367,78.308,125.537,78.187z"/>
<path fill="#716558" d="M65.393,30.533c0.747-2.382,2.34-3.038,2.086-5.55c-0.402-3.802-5.593-6.831-3.465-10.878
	c3.203-0.104,6.503,3.077,8.545,4.86c2.315,2.007,5.691,4.635,3.698,8.801C73.14,29.174,69.258,29.841,65.393,30.533z"/>
<path fill="#716558" d="M86.969,155.865c-0.553,0.773-1.92,0.753-2.851,0.328c0.227,1.332,2.824,1.67,1.896,3.172
	c-2.264,2.375-7.237,3.109-10.796,1.586c-5.091,3.296-3.082,12.109,0.624,15.896c3.45,1.639,6.629,3.555,8.905,6.367
	c0,1.153-0.906,1.419-1.273,2.212c-19.722,3.188-23.319-18.797-14.94-30.833c-0.458-2.511-2.009-3.936-1.908-6.998
	c1.219-0.15,2.021,0.092,2.54,0.637c5.527-1.461,8.915,3.485,12.404,6.043c0.938,0.697,0.098-0.635,1.265-0.959
	C85.213,153.175,87.073,153.531,86.969,155.865z M70.117,167.312c0.647-1.407,1.946-5.066,0.635-6.36
	C70.055,162.825,68.5,165.167,70.117,167.312z M67.261,165.715c1.544-0.605,1.812-3.595,1.272-4.453
	C68.313,162.957,67.653,164.206,67.261,165.715z"/>
<path fill="#716558" d="M139.43,181.927c-0.062-1.438-0.264-3.007,1.592-2.546c-0.496,1.465,0.242,1.354,0.312,2.873
	c1.512,0.012,2.733-1.383,3.813,0c2.097-0.902,0.619-3.607,1.275-5.406c4.312,0.129,4.129,4.767,6.359,6.992
	c0.067,1.025-0.57,1.354-0.316,2.539c-1.008-0.268-1.207,0.285-1.576,0.645c-1.266,0.51-0.133-1.379-0.967-1.269
	c-0.922,0.745-2.348,1.697-1.596,3.169c-0.99-0.145-1.238,0.465-1.904,0.646c-0.738-0.111-1.307-0.381-1.904-0.646
	c-3.938,2.633-7.153,4.954-12.405,4.766c-2.613-0.08-5.404-0.963-8.271-0.95c-5.577,0.055-13.471-0.918-17.79-4.435
	c-2.171-3.918-2.188-9.344,0-13.371c4.252-3.054,5.649-8.972,9.531-12.383c1.579,1.178,4.833,0.157,6.36-0.65
	c-4.024,0.395-7.818,0.016-11.125-0.637c0.432-2.106-3.28-1.459-2.225-3.17c-3.127,2.682-6.407,5.137-7.634,8.901
	c1.021,0.274,0.99-0.494,1.268-0.952c0.373,4.318-5.165,7.074-8.262,7.945c-0.558,0.083-0.721,0.535-0.635,1.269
	c-3.025-0.377-5.382,0.149-8.905,0c0.454-2.075-2.182-4.778-1.592-6.996c1.955,0.5,2.967,0.88,5.402,0.64
	c-1.558-0.67,2.05-2.051,1.283-2.857c0.687-0.279,1.565-0.031,2.214-0.952c-0.062-0.819-0.537,0.433-1.261,0
	c0.241-1.151,1.465-1.496,2.53-0.954c1.527-2.662,4.421-7.619,6.688-11.445c-3.92-1.971-2.962-7.622-4.777-11.133
	c1.536-0.976,2.511-1.516,4.143-0.326c0.062-0.785,2.406-1.16,3.494-1.896c-0.478-3.65-3.247-5.025-3.178-9.221
	c-1.714-2.215-3.388-4.45-3.812-7.944c1.129-0.684,2.041,0.751,3.495,0c0,0.415,0,0.835,0,1.263
	c1.397,0.353,1.575-0.535,2.547-0.629c-1.058-3.214-2.075-6.137-2.23-9.225c2.369,0.396,7.328,1.291,10.169,2.849
	c5.106-2.143,10.519-3.188,17.167-5.397c0.383-2.195-1.189-3.343-0.639-4.759c3.028,0.021,5.94,2.695,9.227,3.501
	c-0.352,1.306-0.373,2.761,1.275,2.849c-0.506,1.312-0.217,1.968-0.955,2.55c0.496,0.549,1.434,0.684,2.539,0.633
	c-0.263,1.959-3.185,1.264-4.135,2.541c-0.388,2.586-1.039,3.417-0.953,6.045c2.905,1.651,5.114,3.996,7.953,5.723
	c-0.287,0.562-0.771,0.917-0.962,1.586c0.169,1.529,2.058,1.333,2.222,2.859c-1.984,0.014-3.338,0.592-5.392,0
	c1.576,2.888,5.968,5.668,10.482,6.67c1.916,3.134,6.096,2.008,7.946,5.1c1.4-0.094,2.88-0.094,2.554-1.91
	c2.487,3.546,8.123,3.945,10.801,7.321c-0.354,1.323-2.385,1.008-3.498,1.573c-0.24,0.812,1.24,1.466,0.318,1.918
	c-1.447,2.421-6.056,1.416-7.621-0.317c-9.927,0.452-19.105,2.035-22.896-6.37c-0.055-0.372-0.576-0.258-0.957-0.314
	c-0.494-2.865-2.221-2.936-5.086-5.09c-2.01-1.517-2.529-3.714-5.721-3.498c-1.541,0.127-3.643,1.343-4.453,3.188
	c-4.246,2.965-9.557,4.855-10.808,10.809c1.327,0.732,7.993,1.504,8.587-1.898c0.519,0.597,1.312,1.142,0.319,1.572
	c4.833,0.313,6.355-2.411,7.63-5.72c3.91,0.121,8.975,1.542,11.448,4.146c0.851,4.047,0.164,7.262-1.6,10.157
	c-0.103,0.996,0.922-0.795,0.957,0.328c-1.494,5.016-4.228,7.604-6.043,11.761c-2.392,0.7-4.25-1.388-5.092,1.269
	c-0.947-1.628-4.011-0.607-3.484,0.962c-0.897,0.261-0.83-0.46-1.598-0.325c0.864,1.996-2.057,1.356-1.585,3.813
	c3.337,2.25,7.481,1.094,10.808,3.187c0.865-0.293-0.969-0.711,0-1.28c2.537-0.199,4.383,0.288,6.676,0.312
	c-0.321,2.554,2.711,1.749,2.541,4.142c1.558,0.267,1.638-0.912,3.181-0.642c-0.633-0.209,0.198-1.899-0.949-1.588
	c0.244-0.69,1.494-0.407,1.582-1.262C140.943,182.121,140.252,181.973,139.43,181.927z M115.263,119.943
	c1.562-1.204,4.202-1.311,5.415-2.862C118.38,117.326,115.728,118.927,115.263,119.943z M116.86,120.579
	c1.61,0.327,2.493-1.734,3.817-0.636c-1.039-0.088-1.529,0.375-1.598,1.269c1.787-0.86,4.52-0.782,5.729-2.22
	c-0.139-0.46-4.364,0.637-2.549-0.644C120.223,118.857,118.287,119.465,116.86,120.579z M118.119,123.755
	c0.054,1.655,0.109,3.286,1.279,3.822c2.107-1.816,5.654-3.89,5.718-6.685C123.246,121.152,119.799,122.261,118.119,123.755z"/>
<path fill="#716558" d="M77.429,140.286c-0.607-0.788-1.218,1.095-2.211,0.946c-0.314-1.52,2.451-1.111,1.575-2.215
	c-0.224-0.312-1.834,0.676-1.896,1.592c-0.694-1.553,1.013-3.42,1.266-5.101c-0.963-2.263-3.238-4.811-2.548-9.53
	c0.935-2.875,6.404-5.979,9.857-2.545c-2.643,6.653,7.96,9.432,5.723,15.903c-5.723,0.842-10.17,0.614-13.979,4.125
	C74.86,142.59,77.329,141.79,77.429,140.286z"/>
<path fill="#716558" d="M90.523,227.27c-0.743-1.205-1.602-4.254-2.109-5.017c0.319-0.317,0.745-0.317,1.095-0.601h0.354
	c0.582-0.645,1.36-0.926,1.833-1.688c0.31,0.118,0.387-0.482,0.74-0.359c0.743-0.682,1.289-1.526,1.879-2.366v-0.401
	c0.152-0.201,0.345-0.365,0.503-0.523c0.351-1.08,0.623-2.125,1.014-3.17c-0.078-0.078-0.155-0.164-0.196-0.201
	c0.118-0.359,0.235-1.283,0.235-1.688c-0.313-0.482-0.392-1.081-0.392-1.644c-0.271-0.083-0.038-0.484-0.311-0.603
	c-0.39-0.122-0.78-0.359-1.094-0.561h-0.937c-0.16-0.122-0.312-0.287-0.509-0.239c-0.271-0.685-0.855-1.088-1.442-1.493
	c-0.194-0.074-0.311,0.045-0.352,0.168c-0.117,0.641-0.466,1.158-0.78,1.639c-0.896,0.127-1.641,0.246-2.416,0.808
	c-0.235,0-0.663,0.119-0.857,0.119c0,0.205-0.623,0.684-0.395,0.805c-0.119,0.083,0.589,0.279,0.547,0.482
	c0.077,0.12,0.193,0.239,0.352,0.239c0.155-0.318,0.546-0.364,0.74-0.604c0.389-0.034,0.744-0.117,1.09-0.356
	c0.472-0.119,0.274,0.159,0.199,0.598c-0.312,0.484-0.507,1.611-0.581,2.167c-0.473,0.567-0.433,1.366-0.941,1.89
	c0,0.199-0.274,0.92-0.274,1.122c-0.973,1.448-0.623,2.492-1.597,4.015c-0.196-0.242-0.426-0.64-0.667-0.924
	c-0.23,0.121-0.583-0.438-0.818-0.322c0.045,0.203-0.465,0.562-0.583,0.644c0.191,0.205,0.583,1.166,0.776,1.362
	c0.081,0.687,0.625,0.687,0.625,1.369c-0.23,0.278,0,0.963-0.312,1.159c0.389,0.442-0.352,0.606-0.232,1.044
	c-0.43,1.81-1.486,3.375-1.521,5.215c-0.431,0.405-0.351,1.047-0.74,1.488c-0.237,1.121-0.627,2.169-1.016,3.174
	c0,0.483-0.041,0.961,0.352,1.319c0.466,0.364,1.012,0.565,1.438,0.926c0.2,0.124,0.315,0,0.354-0.12
	c0.081-0.48,0.43-0.842,0.393-1.322c0.15-0.124,0.271-0.241,0.388-0.401c-0.078-0.44,0.468-0.808,0.39-1.286
	c0.117-0.119,0.275-0.281,0.348-0.361c-0.072-0.361,0.316-0.562,0.198-0.92c0.275-0.08,0.118-0.483,0.392-0.564v-0.561
	c0.116-0.119,0.235-0.242,0.389-0.361c0.471-1.686,1.09-3.573,1.642-5.258c0.115,0.158,1.206,1.849,1.092,2.486
	c0.583,0.729,0.626,1.688,1.247,2.289c0.039,0.962,0.821,1.648,0.857,2.649c0.353,0.601,0.782,1.161,0.898,1.887
	c0.193,0.315,0.584,0.479,0.743,0.883c0.233,0.24,0.271,0.64,0.701,0.64c0-0.318,0.742-1.319,0.742-1.642
	c-1.056-2.13-1.993-2.933-2.575-4.538C91.58,229.436,90.369,227.672,90.523,227.27 M89.39,218.882
	c0.625-1.926,1.327-3.008,1.954-4.977c0.429-0.927,0.659-2.649,0.858-3.613c0.351-0.24,0-0.726,0.426-0.961
	c0.195,0,0.432,0.119,0.509-0.121c0.43,0.166,1.09,0.2,1.4,0.24c0.158,0.805,0.041,1.287,0.395,1.647
	c-0.197,0.801-0.354,2.164-0.782,2.93c-0.348,1.08-1.09,1.966-1.521,2.968c-0.511,0.646-1.01,1.326-1.637,1.844
	c-0.549,0.126-1.91,1.647-2.259,1.888C88.492,220.811,89.467,219.003,89.39,218.882"/>
<path fill="#716558" d="M127.418,227.27c-0.74-1.205-1.598-4.254-2.105-5.017c0.308-0.317,0.742-0.317,1.093-0.601h0.35
	c0.586-0.645,1.365-0.926,1.838-1.688c0.312,0.118,0.386-0.482,0.738-0.359c0.744-0.682,1.289-1.526,1.871-2.366v-0.401
	c0.155-0.201,0.354-0.365,0.512-0.523c0.351-1.08,0.623-2.125,1.013-3.17c-0.076-0.078-0.152-0.164-0.191-0.201
	c0.115-0.359,0.229-1.283,0.229-1.688c-0.311-0.482-0.391-1.081-0.391-1.644c-0.271-0.083-0.037-0.484-0.312-0.603
	c-0.393-0.122-0.78-0.359-1.098-0.561h-0.932c-0.154-0.122-0.316-0.287-0.506-0.239c-0.273-0.685-0.859-1.088-1.449-1.493
	c-0.191-0.074-0.311,0.045-0.344,0.168c-0.119,0.641-0.47,1.158-0.781,1.639c-0.898,0.127-1.641,0.246-2.422,0.808
	c-0.236,0-0.66,0.119-0.855,0.119c0,0.205-0.627,0.684-0.395,0.805c-0.117,0.083,0.59,0.279,0.543,0.482
	c0.084,0.12,0.199,0.239,0.358,0.239c0.154-0.318,0.544-0.364,0.742-0.604c0.388-0.034,0.736-0.117,1.09-0.356
	c0.47-0.119,0.271,0.159,0.191,0.598c-0.313,0.484-0.502,1.611-0.588,2.167c-0.468,0.567-0.425,1.366-0.931,1.89
	c0,0.199-0.274,0.92-0.274,1.122c-0.976,1.448-0.623,2.492-1.603,4.015c-0.194-0.242-0.426-0.64-0.662-0.924
	c-0.233,0.121-0.582-0.438-0.821-0.322c0.043,0.203-0.465,0.562-0.58,0.644c0.19,0.205,0.58,1.166,0.776,1.362
	c0.082,0.687,0.625,0.687,0.625,1.369c-0.233,0.278,0,0.963-0.312,1.159c0.385,0.442-0.35,0.606-0.229,1.044
	c-0.431,1.81-1.482,3.375-1.521,5.215c-0.428,0.405-0.355,1.047-0.744,1.488c-0.236,1.121-0.625,2.169-1.012,3.174
	c0,0.483-0.043,0.961,0.35,1.319c0.467,0.364,1.019,0.565,1.445,0.926c0.189,0.124,0.311,0,0.348-0.12
	c0.078-0.48,0.431-0.842,0.392-1.322c0.153-0.124,0.274-0.241,0.391-0.401c-0.076-0.44,0.474-0.808,0.392-1.286
	c0.114-0.119,0.271-0.281,0.354-0.361c-0.082-0.361,0.309-0.562,0.191-0.92c0.274-0.08,0.116-0.483,0.387-0.564v-0.561
	c0.123-0.119,0.236-0.242,0.395-0.361c0.469-1.686,1.09-3.573,1.64-5.258c0.116,0.158,1.211,1.849,1.096,2.486
	c0.582,0.729,0.621,1.688,1.248,2.289c0.039,0.962,0.813,1.648,0.854,2.649c0.352,0.601,0.784,1.161,0.896,1.887
	c0.199,0.315,0.59,0.479,0.744,0.883c0.235,0.24,0.27,0.64,0.702,0.64c0-0.318,0.742-1.319,0.742-1.642
	c-1.057-2.13-1.989-2.933-2.576-4.538C128.475,229.436,127.266,227.672,127.418,227.27 M126.287,218.882
	c0.621-1.926,1.328-3.008,1.951-4.977c0.43-0.927,0.664-2.649,0.858-3.613c0.351-0.24,0-0.726,0.431-0.961
	c0.188,0,0.424,0.119,0.506-0.121c0.426,0.166,1.092,0.2,1.402,0.24c0.163,0.805,0.034,1.287,0.397,1.647
	c-0.201,0.801-0.363,2.164-0.787,2.93c-0.353,1.08-1.096,1.966-1.521,2.968c-0.51,0.646-1.016,1.326-1.641,1.844
	c-0.547,0.126-1.91,1.647-2.268,1.888C125.391,220.811,126.365,219.003,126.287,218.882"/>
<path fill="#716558" d="M98,219.445c0.15-0.244,0.621-0.887,0.782-1.082c0.112-0.246-0.319-0.326-0.198-0.604
	c-0.314-0.207-0.703-0.362-0.979-0.726c-0.195,0.04-0.43,0.123-0.584-0.163c-0.197,0.203-0.27,0.604-0.628,0.807
	c-0.11,0.843-0.816,1.162-0.854,2.046c-0.546,1.082-0.626,2.327-1.136,3.41c-0.114,1.369-1.129,2.41-1.21,3.771
	c-0.466,1.326-0.817,2.089-0.817,3.414c0.278,0.242,0.702,1.003,0.94,1.242h0.588c0.774-1.646,0.971-3.489,1.866-5.095
	c0-1.125,0.661-2.05,0.859-3.133c0.313-0.201,0.313-0.56,0.545-0.804c0.158-0.721,0.391-1.438,0.664-2.125
	C97.683,220.042,98.116,219.764,98,219.445"/>
<path fill="#716558" d="M98.695,215.826c0.122,0,0.823-0.277,0.707-0.559c0.624-0.484,0.855-1.156,1.482-1.604
	c0.153-0.445-0.432-0.603-0.432-1.002c-0.234-0.282-0.621-0.482-0.936-0.726c-0.352,0.119-0.701-0.119-0.979,0.242
	c-0.039,0.439-0.271,0.842-0.468,1.17c0.044,0.394-0.309,0.762-0.153,1.195C98.19,214.947,98.345,215.47,98.695,215.826"/>
<path fill="#716558" d="M106.736,219.08c0.348-0.24,0.197-0.841,0.666-0.879c0-0.121-0.318-0.688-0.318-0.848
	c-0.15-0.279-0.426-0.119-0.695-0.196c-1.256,2.364-2.422,5.495-3.905,7.665c-0.388,0.722-2.225,2.968-2.65,3.609
	c0-0.359,0.507-1.765,0.463-2.046c0.393-1.202,0.551-2.407,0.743-3.694c0.312-0.039,0.076-0.479,0.39-0.561
	c0.037-0.885,0.817-3.171,0.937-4.095c-0.312-0.195-0.466-0.804-0.506-1.08c-0.194-0.326-0.858-0.2-1.093-0.562
	c-0.271,0.116-0.426,0.116-0.662,0.235c0,0.283-0.313,1.65-0.313,1.968c-1.169,3.776-2.025,7.905-2.571,11.84
	c0.426,0.445,0.854,0.846,1.127,1.369c0.198,0,0.473-0.087,0.549,0.194c0.661-0.881,1.209-1.521,1.912-2.328
	c0.429-0.966,1.052-1.442,1.481-2.485c0.47-0.442,0.782-1.402,1.212-1.846C104.473,223.777,105.801,220.648,106.736,219.08"/>
<path fill="#716558" d="M112.279,225.78c0-0.317-0.045-0.438-0.237-0.64c-2.102,2.086-2.928,2.047-4.951,4.176
	c-0.044-0.079-0.078-0.164-0.157-0.204c0.346-1.001,0.309-1.642,0.819-2.608c0.546-0.438,0.819-0.843,1.444-1.124
	c0.622-0.598,1.946-1.401,2.57-2.045c1.522-2.327,0.705-1.802,1.134-3.214c-0.079-0.079-0.157-1.201-0.196-1.281
	c0.35-0.682-0.663-1.04-0.663-1.844c-0.157-0.125-0.274-0.203-0.429-0.365c0,0.162-0.589,0.283-0.896,0.365
	c-1.095,0.882-1.21,1.205-2.108,2.242c-0.355,0.767-0.783,1.531-1.33,2.17c-0.427,1.283-1.361,2.329-1.479,3.691
	c-0.317,0.485-0.193,0.443-0.193,1.004c-0.431,0.318-1.29,0.922-1.8,1.159c0.037,0.167-0.43,0.968-0.309,0.968
	c0.114-0.158,1.678-0.918,1.559-0.399c-0.078,0.84-0.313,1.724-0.193,2.606c0.115,0.084,0.234,0.199,0.39,0.323
	c-0.155,0.283,0.274,0.32,0.153,0.562c0.433,0.164,0.858,0.24,1.328,0.203c0.391-0.404,0.666-0.965,1.128-1.287
	c-0.111-0.244,0.275-0.358,0.199-0.564c0.622-0.357,0.782-0.802,1.481-1.039c0.313-0.522,0.979-0.642,1.248-1.287
	C111.806,226.422,111.418,226.869,112.279,225.78 M108.609,223.979c0.39-0.608,0.701-1.211,0.936-1.848
	c0.468-0.763,0.621-0.923,1.173-1.685c0.269,0.2,1.011-1.527,1.05-1.246c-0.154,1.567,0.236,1.888-0.584,3.45
	c-0.506,0.604-1.6,1.205-2.185,1.729C108.453,224.864,108.14,224.822,108.609,223.979"/>
<path fill="#716558" d="M120.98,217.396c-0.203,0.08-0.396-0.162-0.472-0.322c-0.231,0.043-0.942,0.201-1.057,0.322
	c-0.039,0.843-0.662,1.398-0.898,2.125c-0.661,0.561-1.52,1.848-2.064,2.492c-0.076-0.044,0.354-1.326,0.545-1.527
	c0-0.685,0.353-1.248,0.392-1.928c0.27-0.076,0.078-0.521,0.347-0.599c0.042-0.448-0.15-0.483-0.347-0.927
	c-0.156-0.321-0.544-0.362-0.78-0.604h-0.351c-0.434,0.281-0.434,0.846-0.785,1.166c-0.31,1.924-1.403,3.092-1.75,5.014
	c-0.628,1.166-1.68,4.334-2.229,5.543c-0.035,0.644-0.235,1.602-0.508,2.205c0.395,0.524,1.018,0.883,1.484,1.328
	c0.196,0.082,0.59-0.728,0.781-0.97v-0.561c0.705-0.921,1.758-4.372,2.656-5.257c0.112-0.397,0.505-0.685,0.544-1.123
	c0.393-0.442,0.626-1.002,1.133-1.367c-0.157-0.239,0.271-0.32,0.15-0.562c0.121-0.116,1.215-1.2,1.37-1.282
	c0.312,0.643-0.588,2.209-0.391,2.927c0.271,0.044,0.391,0.364,0.701,0.284c0.432-0.645,0.74-1.326,1.131-1.929
	c0.092-0.857,0.258-1.718,0.355-2.579l0.028-0.273C121.018,218.462,121.033,217.927,120.98,217.396"/>
<path fill="#716558" d="M138.805,219.361c-0.117-0.764-0.774-1.562-0.975-2.327c-0.389-0.358-0.975-0.321-1.324-0.761
	c-0.898,0.52-1.6,1.08-2.225,1.928c-0.625,0.557-1.443,1.361-1.992,1.92c-0.387,0.972-1.441,2.936-1.988,4.581
	c-0.666,1.802-0.045,3.729-0.234,5.575c0.156,0.359,0.509,0.522,0.742,0.805c0.039,0.279,0.191,0.32,0.392,0.562
	c0.268,0.08,0.582,0.28,0.896,0.199c0.588-0.439,1.834-0.563,2.301-1.165c0-0.116,0.273-1.005,0.55-1.163
	c0.35,0.081,0.582-0.644,0.582-0.76c0.198-0.203,0.547-0.845,0.547-0.966c0.313-0.157,0.819-1.408,0.936-1.522
	c0.314-1.005,1.211-3.856,1.603-4.775C138.73,220.77,138.375,220.042,138.805,219.361 M136.426,225.379
	c-0.352,0.319-0.975,2.01-1.363,2.293c0.08,0.282-0.313,0.359-0.196,0.602c-1.404,1.48-2.027,1.562-2.531,2.248
	c0,0-0.201-1.129-0.238-1.369c0.353-0.28,0-1.321,0.037-1.64c0.705-1.409,0.474-3.258,1.955-5.463
	c0.429-0.643,1.363-1.323,1.603-2.009c0.502-0.402,0.66-0.479,1.127-0.88c0.039,0.075,0.586-0.604,0.666-0.521
	C137.791,221.773,136.938,223.574,136.426,225.379"/>
<path fill="#716558" d="M154.963,206.759c-0.045-0.602,1.166-1.802,1.051-2.405c-0.547-1.365-2.029-0.361-2.459-0.603
	c-1.051,1.164-1.129,3.133-2.029,4.455c-1.135,2.848-1.483,4.772-2.768,7.583c0.115,0.402-0.51,0.684-0.393,1.044
	c-0.312,0.08-0.156,1.324-0.428,1.405c-0.078,0.761-0.859,1.644-0.82,2.408c-0.738,1.565-0.859,2.927-1.68,4.375
	c-0.056,0.207-0.115,0.405-0.173,0.611c-0.174,0.012-0.409,0.026-0.487,0.026c-0.588,0.604-0.396,0.522-1.06,1.084
	c-0.771,0.043-0.932,1.086-1.637,1.287c-0.433,0.319-1.717,1.12-2.066,1.563c-0.079-0.081,0.236-1.484,0.156-1.527
	c0.154-0.518,0.353-0.639,0.428-1.123c0.273-0.076,0.076-0.522,0.392-0.563c0.117-0.476,0.199-0.96,0.469-1.319
	c1.285-2.728,1.285-4.336,2.887-6.578c0.314,0.799,0.392,1.679,0.586,2.523c0.547,0,0.857-1.125,0.898-1.605
	c-0.271-0.762-0.898-1.284-1.053-2.047c-0.158-0.157-0.271-0.28-0.396-0.44h-0.385c-0.938,0.685-1.525,1.569-2.346,2.408
	c-0.854,1.526-0.854,1.887-1.791,3.409c-0.472,1.523-1.129,2.73-1.521,4.254c-0.428,0.926-0.707,1.887-0.707,2.851
	c0.433,0.726,0.664,1.365,1.209,2.008c0.515-0.44,0.976-0.603,1.564-0.884c0.782-0.682,1.442-1.246,2.184-2.006
	c0.396-0.521,1.33-0.887,1.521-1.605c0.406-0.441,0.615-0.628,0.91-0.861c-0.459,1.515-0.979,2.964-1.573,4.396
	c0.588,1.002,1.213,0.521,1.68,1.118c0.117-0.158,0.188-0.276,0.385-0.238c0-0.804,0.668-0.719,0.668-1.524
	c0.431-0.446,0.392-1.126,0.855-1.521c0.157-0.762,0.434-1.848,0.434-2.13c0.232-0.205,0.232-0.759,0.509-0.963
	c0.153,1.524,0.075,2.487,0.192,3.771c-0.231,0.604,0.195,0.885,0.078,1.565c-0.039,0.401,0.233,0.362,0.467,0.646
	c0.316-0.118,0.275-0.282,0.666-0.363c1.365-1.688,2.656-3.526,3.979-5.335c-0.233-0.078-0.194-0.362-0.233-0.563
	c-0.233-0.119-0.233,0.281-0.514,0.281c-1.244,1.044-1.986,2.566-3.117,3.729c-0.195-0.92,0.117-1.881-0.078-2.885
	c-0.272-0.402-0.272-0.924-0.428-1.367c0.194-0.361,0.506-0.16,0.741-0.199c0.154-0.162,0.275-0.239,0.392-0.4
	c0.233,0.12,0.307-0.283,0.584-0.201c0.582-0.521,0.856-1.242,1.401-1.806c-0.039-0.361,0.859-1.56,1.019-1.845
	c0.113-0.606,0.19-1.246,0.076-1.729c0.194-0.521,0-1.042,0.194-1.242v-0.401c-0.194-0.318-0.506-0.078-0.739-0.118
	c-2.229,2.005-1.601,1.763-2.73,3.164c-0.041-0.076,0.041-0.2-0.041-0.279c0.433-0.962,0.433-1.962,0.703-2.119
	C152.303,213.984,152.969,210.531,154.963,206.759 M150.199,220.85c0.391-0.283,1.055-1.211,1.598-1.365
	c0.119,0.078,0.045,1.203,0,1.401c-0.428,0.847-1.713,2.606-2.572,3.173c-0.192,0,0-0.565-0.117-0.688v-0.438
	C149.34,222.609,150.199,221.33,150.199,220.85"/>
<path fill="#716558" d="M64.733,220.634c0.845-0.764,1.66-1.332,2.457-1.705c0.794-0.377,1.4-0.561,1.842-0.561
	c0.115,0,0.223,0.049,0.325,0.147c0.099,0.101,0.176,0.207,0.236,0.336c0.057,0.129,0.083,0.22,0.083,0.283
	c0,0.1-0.036,0.174-0.114,0.221c-0.076,0.052-0.215,0.106-0.408,0.172c0.041,0.089,0.086,0.201,0.151,0.343
	c0.06,0.139,0.106,0.249,0.142,0.335c0.033,0.086,0.05,0.163,0.05,0.229c0,0.133-0.137,0.381-0.405,0.742
	c-0.27,0.367-0.456,0.635-0.567,0.807c-0.108,0.173-0.158,0.383-0.158,0.632c0,0.411,0.188,0.616,0.563,0.616
	c0.391,0,0.994-0.363,1.821-1.09v0.512c-1.404,1.557-2.409,2.334-3.012,2.334c-0.216,0-0.371-0.071-0.464-0.207
	c-0.091-0.146-0.139-0.353-0.139-0.631c0-0.438,0.159-1.073,0.474-1.91c-0.808,0.904-1.406,1.539-1.803,1.925
	c-0.392,0.378-0.719,0.565-0.974,0.565c-0.119,0-0.273-0.104-0.458-0.315c-0.184-0.212-0.347-0.481-0.488-0.818
	c-0.14-0.338-0.211-0.686-0.211-1.046c0-0.257,0.024-0.478,0.075-0.65c0.048-0.182,0.146-0.358,0.291-0.539
	C64.188,221.172,64.417,220.934,64.733,220.634z M68.72,219.718c-1.439,0.663-2.47,1.222-3.083,1.683
	c-0.613,0.463-0.918,0.936-0.918,1.425c0,0.179,0.029,0.323,0.087,0.436c0.062,0.109,0.15,0.171,0.253,0.171
	c0.062,0,0.167-0.037,0.323-0.115c0.587-0.347,1.113-0.795,1.599-1.346C67.464,221.417,68.046,220.667,68.72,219.718z"/>
<path fill="#716558" d="M73.597,217.807h0.359c0.295-0.531,0.563-0.904,0.802-1.119c0.237-0.224,0.505-0.33,0.812-0.33
	c0.307,0,0.46,0.069,0.46,0.205c0,0.063-0.12,0.25-0.358,0.543c-0.238,0.297-0.418,0.539-0.54,0.742
	c0.186,0.021,0.354,0.038,0.501,0.055c0.149,0.021,0.265,0.033,0.349,0.046c-0.319,0.588-0.719,1.188-1.193,1.805
	c-0.155-0.011-0.287-0.021-0.391-0.028c-0.104-0.009-0.212-0.017-0.32-0.024c-0.109-0.011-0.241-0.019-0.396-0.031
	c-0.3,0.483-0.547,0.917-0.753,1.299c-0.199,0.376-0.357,0.728-0.465,1.041c-0.107,0.316-0.162,0.616-0.162,0.898
	c0,0.383,0.15,0.575,0.456,0.575c0.209,0,0.489-0.111,0.83-0.338c0.34-0.222,0.8-0.57,1.37-1.035v0.56
	c-1.498,1.623-2.609,2.437-3.324,2.437c-0.248,0-0.448-0.097-0.604-0.293c-0.149-0.19-0.229-0.44-0.229-0.748
	c0-0.203,0.045-0.448,0.128-0.733c0.092-0.282,0.245-0.709,0.466-1.278c-0.081,0.064-0.152,0.133-0.221,0.195
	c-0.071,0.066-0.137,0.121-0.193,0.178c-0.058,0.051-0.122,0.104-0.187,0.166c-0.07,0.057-0.136,0.12-0.203,0.178v-0.576
	c0.586-0.486,1.291-1.342,2.117-2.573c-0.081,0-0.162-0.006-0.23-0.011c-0.073-0.006-0.158-0.006-0.262-0.006
	c-0.329,0-0.57,0.021-0.729,0.066c-0.069,0.018-0.132,0.037-0.188,0.057c-0.061,0.019-0.096,0.028-0.12,0.028
	c-0.022,0-0.036-0.021-0.036-0.048c0-0.188,0.119-0.461,0.345-0.826c0.187-0.312,0.354-0.541,0.518-0.691
	c0.164-0.146,0.367-0.252,0.602-0.305C72.839,217.833,73.173,217.807,73.597,217.807z"/>
</svg>
